<svg width="1156" height="1123" viewBox="0 0 1156 1123" fill="none" xmlns="http://www.w3.org/2000/svg">
<path d="M1155.3 579.356C949.431 577.568 1262.44 257.112 1006.26 252.068C750.077 247.025 914.275 439.656 663.444 439.656C478.999 439.656 651.343 59.6746 482.73 8.44685C321.914 -40.4479 440.797 166.768 294.555 184.468C148.313 202.168 233.087 82.0264 135.457 42.9107C37.8276 3.79487 32.3222 58.8922 41.6422 87.9218C50.9622 116.951 38.107 125.18 41.3348 139.303C44.5626 153.427 40.6082 185.041 40.3707 194.247C40.1331 203.453 48.517 201.93 50.7247 211.598C52.7199 220.516 51.3095 229.858 46.7703 237.791C42.6902 245.014 38.5122 262.588 35.8294 275.859C33.1466 289.131 19.8722 284.479 19.8722 284.479C19.8722 284.479 19.6765 316.26 10.3984 324.642C1.1203 333.024 -3.07162 347.916 6.2065 353.043C15.4846 358.17 27.6831 388.443 30.9388 398.683C34.1946 408.923 165.08 459.214 188.835 474.581C212.589 489.948 225.151 556.068 231.676 574.229C238.201 592.39 235.407 622.676 257.764 725.579C280.121 828.481 275.809 797.316 264.75 849.911C253.691 902.506 437.809 950.316 374.309 1013.82C273.309 1114.82 524.809 1194.82 524.809 1013.82" stroke="black" stroke-width="2" stroke-miterlimit="10"/>
</svg>
