<svg width="309" height="1124" viewBox="0 0 309 1124" fill="none" xmlns="http://www.w3.org/2000/svg">
<path d="M1155.99 580.039C950.121 578.251 1263.13 257.795 1006.95 252.752C750.767 247.709 914.965 440.34 664.134 440.34C479.69 440.34 652.034 60.3582 483.421 9.13045C322.605 -39.7643 441.487 167.452 295.245 185.152C149.003 202.851 233.778 82.71 136.148 43.5942C38.518 4.47846 33.0126 59.5758 42.3326 88.6053C51.6527 117.635 38.7975 125.863 42.0252 139.987C45.253 154.11 41.2986 185.724 41.0611 194.93C40.8235 204.137 49.2074 202.614 51.4151 212.281C53.4103 221.2 51.9999 230.542 47.4608 238.475C43.3806 245.697 39.2027 263.271 36.5198 276.543C33.837 289.814 20.5626 285.162 20.5626 285.162C20.5626 285.162 20.367 316.944 11.0889 325.326C1.81073 333.708 -2.38119 348.6 6.89693 353.727C16.175 358.854 28.3735 389.126 31.6293 399.366C34.885 409.606 165.771 459.898 189.525 475.265C213.279 490.632 225.841 556.751 232.366 574.912C238.892 593.073 236.097 623.36 258.454 726.263C280.811 829.165 276.5 798 265.441 850.595C254.382 903.19 438.5 951 375 1014.5C274 1115.5 525.5 1195.5 525.5 1014.5" stroke="black" stroke-width="2" stroke-miterlimit="10"/>
</svg>
