<svg width="1157" height="1125" viewBox="0 0 1157 1125" fill="none" xmlns="http://www.w3.org/2000/svg">
<path d="M1156.3 580.356C950.431 578.568 1263.44 258.112 1007.26 253.068C751.077 248.025 915.275 440.656 664.444 440.656C479.999 440.656 652.343 60.6746 483.73 9.44685C322.914 -39.4479 441.797 167.768 295.555 185.468C149.313 203.168 234.087 83.0264 136.457 43.9107C38.8276 4.79487 33.3222 59.8922 42.6422 88.9218C51.9622 117.951 39.107 126.18 42.3348 140.303C45.5626 154.427 41.6082 186.041 41.3707 195.247C41.1331 204.453 49.517 202.93 51.7247 212.598C53.7199 221.516 52.3095 230.858 47.7703 238.791C43.6902 246.014 39.5122 263.588 36.8294 276.859C34.1466 290.131 20.8722 285.479 20.8722 285.479C20.8722 285.479 20.6765 317.26 11.3984 325.642C2.1203 334.024 -2.07162 348.916 7.2065 354.043C16.4846 359.17 28.6831 389.443 31.9388 399.683C35.1946 409.923 166.08 460.214 189.835 475.581C213.589 490.948 226.151 557.068 232.676 575.229C239.201 593.39 236.407 623.676 258.764 726.579C281.121 829.481 276.809 798.316 265.75 850.911C254.691 903.506 438.809 951.316 375.309 1014.82C274.309 1115.82 525.809 1195.82 525.809 1014.82" stroke="#636363" stroke-width="3" stroke-miterlimit="10"/>
</svg>
