<svg width="208" height="69" viewBox="0 0 208 69" fill="none" xmlns="http://www.w3.org/2000/svg">
<g clip-path="url(#clip0)">
<path d="M30.3551 24.3346C31.7917 24.3346 32.9563 23.1614 32.9563 21.7142C32.9563 20.267 31.7917 19.0938 30.3551 19.0938C28.9185 19.0938 27.7539 20.267 27.7539 21.7142C27.7539 23.1614 28.9185 24.3346 30.3551 24.3346Z" fill="#E61E29"/>
<path d="M68.6428 0V69C64.869 69.0029 61.1309 68.2627 57.6389 66.8212C56.3048 66.2695 55.015 65.6149 53.7809 64.8632C49.4852 62.276 45.9299 58.6095 43.4631 54.2225C40.9962 49.8355 39.7024 44.8785 39.7081 39.8366V17.1654L41.2864 21.5818L49.6599 17.6659L50.2152 17.4156L59.144 13.2494H34.155C26.7819 13.2119 19.6671 15.9832 14.2368 21.0077C13.6377 21.5524 13.0677 22.1412 12.527 22.7301L0.149414 35.1993V0H68.6428Z" fill="#E61E29"/>
<path d="M97.0371 13.7793H100.895V20.4482H107.705V13.7793H111.592V31.0183H107.705V24.2022H100.895V31.0183H97.0371V13.7793Z" fill="white"/>
<path d="M118.416 24.4672V13.7793H122.303V24.4377C122.303 25.2615 122.628 26.0516 123.206 26.6342C123.785 27.2167 124.569 27.544 125.387 27.544C126.204 27.544 126.989 27.2167 127.567 26.6342C128.145 26.0516 128.47 25.2615 128.47 24.4377V13.7793H132.343V24.4377C132.261 26.2426 131.491 27.9461 130.194 29.1941C128.897 30.4421 127.173 31.1385 125.379 31.1385C123.586 31.1385 121.861 30.4421 120.564 29.1941C119.268 27.9461 118.498 26.2426 118.416 24.4377V24.4672Z" fill="white"/>
<path d="M139.211 13.7793H145.904C149.28 13.7793 151.209 15.752 151.209 18.3577C151.222 19.0612 151.051 19.7559 150.712 20.3712C150.374 20.9865 149.879 21.5007 149.28 21.8614V22.0823C150.034 22.4234 150.672 22.981 151.114 23.6853C151.556 24.3896 151.782 25.2094 151.764 26.0424C151.763 26.7343 151.622 27.4188 151.349 28.0536C151.075 28.6884 150.676 29.26 150.174 29.7332C149.673 30.2063 149.081 30.571 148.435 30.8047C147.788 31.0384 147.101 31.1361 146.415 31.0919H139.211V13.7793ZM145.392 20.6984C145.656 20.7217 145.921 20.6882 146.17 20.6C146.419 20.5118 146.647 20.371 146.838 20.1871C147.029 20.0031 147.178 19.7802 147.277 19.5333C147.375 19.2863 147.421 19.0211 147.409 18.7552C147.406 18.501 147.351 18.2501 147.247 18.0187C147.142 17.7872 146.991 17.5804 146.802 17.4113C146.614 17.2422 146.392 17.1146 146.152 17.0368C145.912 16.9589 145.658 16.9325 145.407 16.9592H142.894V20.6984H145.392ZM145.392 27.7353C145.689 27.776 145.991 27.7491 146.277 27.6565C146.562 27.5639 146.823 27.408 147.04 27.2003C147.257 26.9926 147.426 26.7384 147.533 26.4565C147.639 26.1746 147.682 25.8721 147.658 25.5713C147.652 25.2799 147.585 24.9929 147.462 24.7292C147.339 24.4655 147.162 24.2309 146.942 24.0406C146.723 23.8503 146.467 23.7087 146.19 23.625C145.912 23.5412 145.621 23.5172 145.334 23.5544H142.894V27.7795L145.392 27.7353Z" fill="white"/>
<path d="M157.888 13.7793H168.716V17.1064H161.746V20.6837H167.693V23.9961H161.746V27.6617H169.052V31.0183H157.961L157.888 13.7793Z" fill="white"/>
<path d="M175.277 13.7786H181.97C182.747 13.7219 183.526 13.8272 184.26 14.088C184.994 14.3488 185.667 14.7594 186.236 15.2942C186.806 15.8291 187.259 16.4765 187.569 17.196C187.878 17.9156 188.037 18.6917 188.035 19.4759C188.044 20.5132 187.765 21.5325 187.231 22.4192C186.697 23.306 185.927 24.0252 185.01 24.4959L188.663 31.0176H184.279L181.356 25.2614H179.062V31.0176H175.204L175.277 13.7786ZM181.634 21.9344C181.961 21.9585 182.289 21.9115 182.596 21.7965C182.903 21.6815 183.181 21.5012 183.413 21.2679C183.644 21.0346 183.823 20.7538 183.938 20.4445C184.052 20.1353 184.098 19.8049 184.074 19.4759C184.086 19.15 184.029 18.8253 183.906 18.5235C183.784 18.2217 183.599 17.9496 183.364 17.7254C183.129 17.5012 182.849 17.3299 182.543 17.2231C182.237 17.1162 181.913 17.0762 181.59 17.1057H179.135V21.9344H181.634Z" fill="white"/>
<path d="M198.484 17.1505H193.72V13.7793H207.149V17.1505H202.371V31.0183H198.484V17.1505Z" fill="white"/>
<path d="M106.58 54.8972L102.605 47.5364L100.895 49.5827V54.853H97.0371V37.6582H100.895V44.2387H100.983L106.141 37.6582H110.905L105.206 44.4301L111.051 54.8972H106.58Z" fill="white"/>
<path d="M116.882 37.6575H123.575C124.351 37.6008 125.131 37.7061 125.865 37.9669C126.599 38.2277 127.272 38.6384 127.841 39.1732C128.41 39.708 128.864 40.3554 129.173 41.0749C129.483 41.7945 129.641 42.5706 129.639 43.3548C129.648 44.3921 129.37 45.4114 128.836 46.2982C128.301 47.1849 127.532 47.9041 126.614 48.3748L130.209 54.8965H125.825L122.903 49.1403H120.74V54.8965H116.882V37.6575ZM123.239 45.8133C123.874 45.8133 124.484 45.5589 124.933 45.1061C125.383 44.6533 125.635 44.0392 125.635 43.3989C125.635 42.7586 125.383 42.1445 124.933 41.6917C124.484 41.239 123.874 40.9846 123.239 40.9846H120.74V45.8133H123.239Z" fill="white"/>
<path d="M136.172 48.3461V37.6582H140.059V48.3166C140.059 49.1405 140.384 49.9305 140.962 50.5131C141.54 51.0956 142.325 51.4229 143.143 51.4229C143.96 51.4229 144.745 51.0956 145.323 50.5131C145.901 49.9305 146.226 49.1405 146.226 48.3166V37.6582H150.099V48.3166C150.016 50.1215 149.247 51.825 147.95 53.073C146.653 54.321 144.929 55.0174 143.135 55.0174C141.342 55.0174 139.617 54.321 138.32 53.073C137.023 51.825 136.254 50.1215 136.172 48.3166V48.3461Z" fill="white"/>
<path d="M166.51 54.8972L162.535 47.5364L160.898 49.6268V54.8972H157.04V37.6582H160.898V44.2387H161.044L166.203 37.6582H170.967L165.267 44.4301L171.113 54.8972H166.51Z" fill="white"/>
</g>
<defs>
<clipPath id="clip0">
<rect width="207" height="69" fill="white" transform="translate(0.149414)"/>
</clipPath>
</defs>
</svg>
