<svg width="207" height="69" viewBox="0 0 207 69" fill="none" xmlns="http://www.w3.org/2000/svg">
<g clip-path="url(#clip0)">
<path d="M30.2057 24.3346C31.6423 24.3346 32.8069 23.1614 32.8069 21.7142C32.8069 20.267 31.6423 19.0938 30.2057 19.0938C28.7691 19.0938 27.6045 20.267 27.6045 21.7142C27.6045 23.1614 28.7691 24.3346 30.2057 24.3346Z" fill="#FF133E"/>
<path d="M68.4934 0V69C64.7195 69.0029 60.9815 68.2627 57.4894 66.8212C56.1554 66.2695 54.8656 65.6149 53.6315 64.8632C49.3358 62.276 45.7805 58.6095 43.3136 54.2225C40.8468 49.8355 39.5529 44.8785 39.5587 39.8366V17.1654L41.137 21.5818L49.5105 17.6659L50.0658 17.4156L58.9946 13.2494H34.0056C26.6324 13.2119 19.5177 15.9832 14.0874 21.0077C13.4882 21.5524 12.9183 22.1412 12.3776 22.7301L0 35.1993V0H68.4934Z" fill="#FF133E"/>
<path d="M96.8877 13.7793H100.746V20.4482H107.556V13.7793H111.443V31.0183H107.556V24.2022H100.746V31.0183H96.8877V13.7793Z" fill="black"/>
<path d="M118.267 24.4672V13.7793H122.154V24.4377C122.154 25.2615 122.479 26.0516 123.057 26.6342C123.635 27.2167 124.419 27.544 125.237 27.544C126.055 27.544 126.839 27.2167 127.418 26.6342C127.996 26.0516 128.321 25.2615 128.321 24.4377V13.7793H132.193V24.4377C132.111 26.2426 131.342 27.9461 130.045 29.1941C128.748 30.4421 127.023 31.1385 125.23 31.1385C123.436 31.1385 121.712 30.4421 120.415 29.1941C119.118 27.9461 118.349 26.2426 118.267 24.4377V24.4672Z" fill="black"/>
<path d="M139.062 13.7793H145.754C149.13 13.7793 151.059 15.752 151.059 18.3577C151.073 19.0612 150.902 19.7559 150.563 20.3712C150.224 20.9865 149.73 21.5007 149.13 21.8614V22.0823C149.885 22.4234 150.523 22.981 150.965 23.6853C151.406 24.3896 151.632 25.2094 151.615 26.0424C151.614 26.7343 151.473 27.4188 151.199 28.0536C150.926 28.6884 150.526 29.26 150.025 29.7332C149.524 30.2063 148.932 30.571 148.285 30.8047C147.639 31.0384 146.951 31.1361 146.266 31.0919H139.062V13.7793ZM145.243 20.6984C145.506 20.7217 145.771 20.6882 146.021 20.6C146.27 20.5118 146.497 20.371 146.688 20.1871C146.879 20.0031 147.029 19.7802 147.128 19.5333C147.226 19.2863 147.271 19.0211 147.26 18.7552C147.257 18.501 147.202 18.2501 147.097 18.0187C146.993 17.7872 146.841 17.5804 146.653 17.4113C146.464 17.2422 146.243 17.1146 146.003 17.0368C145.762 16.9589 145.509 16.9325 145.258 16.9592H142.744V20.6984H145.243ZM145.243 27.7353C145.54 27.776 145.842 27.7491 146.127 27.6565C146.412 27.5639 146.673 27.408 146.891 27.2003C147.108 26.9926 147.276 26.7384 147.383 26.4565C147.49 26.1746 147.533 25.8721 147.508 25.5713C147.502 25.2799 147.436 24.9929 147.312 24.7292C147.189 24.4655 147.012 24.2309 146.793 24.0406C146.574 23.8503 146.317 23.7087 146.04 23.625C145.763 23.5412 145.472 23.5172 145.185 23.5544H142.744V27.7795L145.243 27.7353Z" fill="black"/>
<path d="M157.738 13.7793H168.567V17.1064H161.596V20.6837H167.544V23.9961H161.596V27.6617H168.903V31.0183H157.811L157.738 13.7793Z" fill="black"/>
<path d="M175.128 13.7786H181.821C182.597 13.7219 183.377 13.8272 184.111 14.088C184.845 14.3488 185.518 14.7594 186.087 15.2942C186.656 15.8291 187.11 16.4765 187.419 17.196C187.729 17.9156 187.887 18.6917 187.885 19.4759C187.894 20.5132 187.616 21.5325 187.082 22.4192C186.547 23.306 185.778 24.0252 184.86 24.4959L188.514 31.0176H184.13L181.207 25.2614H178.913V31.0176H175.055L175.128 13.7786ZM181.485 21.9344C181.811 21.9585 182.139 21.9115 182.446 21.7965C182.753 21.6815 183.032 21.5012 183.263 21.2679C183.495 21.0346 183.674 20.7538 183.788 20.4445C183.902 20.1353 183.949 19.8049 183.925 19.4759C183.937 19.15 183.879 18.8253 183.757 18.5235C183.634 18.2217 183.449 17.9496 183.214 17.7254C182.979 17.5012 182.7 17.3299 182.394 17.2231C182.088 17.1162 181.763 17.0762 181.441 17.1057H178.986V21.9344H181.485Z" fill="black"/>
<path d="M198.334 17.1505H193.57V13.7793H207V17.1505H202.221V31.0183H198.334V17.1505Z" fill="black"/>
<path d="M106.43 54.8972L102.455 47.5364L100.746 49.5827V54.853H96.8877V37.6582H100.746V44.2387H100.833L105.992 37.6582H110.756L105.057 44.4301L110.902 54.8972H106.43Z" fill="black"/>
<path d="M116.732 37.6575H123.425C124.202 37.6008 124.981 37.7061 125.715 37.9669C126.45 38.2277 127.122 38.6384 127.692 39.1732C128.261 39.708 128.714 40.3554 129.024 41.0749C129.333 41.7945 129.492 42.5706 129.49 43.3548C129.499 44.3921 129.221 45.4114 128.686 46.2982C128.152 47.1849 127.383 47.9041 126.465 48.3748L130.06 54.8965H125.676L122.753 49.1403H120.59V54.8965H116.732V37.6575ZM123.089 45.8133C123.725 45.8133 124.335 45.5589 124.784 45.1061C125.233 44.6533 125.486 44.0392 125.486 43.3989C125.486 42.7586 125.233 42.1445 124.784 41.6917C124.335 41.239 123.725 40.9846 123.089 40.9846H120.59V45.8133H123.089Z" fill="black"/>
<path d="M136.022 48.3461V37.6582H139.91V48.3166C139.91 49.1405 140.235 49.9305 140.813 50.5131C141.391 51.0956 142.175 51.4229 142.993 51.4229C143.811 51.4229 144.595 51.0956 145.173 50.5131C145.752 49.9305 146.077 49.1405 146.077 48.3166V37.6582H149.949V48.3166C149.867 50.1215 149.098 51.825 147.801 53.073C146.504 54.321 144.779 55.0174 142.986 55.0174C141.192 55.0174 139.468 54.321 138.171 53.073C136.874 51.825 136.105 50.1215 136.022 48.3166V48.3461Z" fill="black"/>
<path d="M166.36 54.8972L162.385 47.5364L160.749 49.6268V54.8972H156.891V37.6582H160.749V44.2387H160.895L166.053 37.6582H170.817L165.118 44.4301L170.963 54.8972H166.36Z" fill="black"/>
</g>
<defs>
<clipPath id="clip0">
<rect width="207" height="69" fill="white"/>
</clipPath>
</defs>
</svg>
