<svg width="69" height="69" viewBox="0 0 69 69" fill="none" xmlns="http://www.w3.org/2000/svg">
<path d="M30.2057 24.3346C31.6423 24.3346 32.8069 23.1614 32.8069 21.7142C32.8069 20.267 31.6423 19.0938 30.2057 19.0938C28.7691 19.0938 27.6045 20.267 27.6045 21.7142C27.6045 23.1614 28.7691 24.3346 30.2057 24.3346Z" fill="#E61E29"/>
<path d="M68.4934 0V69C64.7195 69.0029 60.9815 68.2627 57.4894 66.8212C56.1554 66.2695 54.8656 65.6149 53.6315 64.8632C49.3358 62.276 45.7805 58.6095 43.3136 54.2225C40.8468 49.8355 39.5529 44.8785 39.5587 39.8366V17.1654L41.137 21.5818L49.5105 17.6659L50.0658 17.4156L58.9946 13.2494H34.0056C26.6324 13.2119 19.5177 15.9832 14.0874 21.0077C13.4882 21.5524 12.9183 22.1412 12.3776 22.7301L0 35.1993V0H68.4934Z" fill="#E61E29"/>
</svg>
