<?xml version="1.0" encoding="utf-8"?>
<!-- Generator: Adobe Illustrator 25.2.1, SVG Export Plug-In . SVG Version: 6.00 Build 0)  -->
<svg version="1.1" xmlns="http://www.w3.org/2000/svg" xmlns:xlink="http://www.w3.org/1999/xlink" x="0px" y="0px"
	 viewBox="0 0 400 320" style="enable-background:new 0 0 400 320;" xml:space="preserve">
<style type="text/css">
	.st0{fill:#3F3F3F;}
	.st1{fill:#6C6C6C;}
	.st2{fill:#E5202B;}
	.st3{opacity:0.84;fill:#E5202B;enable-background:new    ;}
	.st4{fill:#8B1915;}
	.st5{fill:#8F1A16;}
	.st6{fill:#8C1914;}
	.st7{opacity:0.84;}
	.st8{opacity:0.84;fill:#FFFFFF;enable-background:new    ;}
	.st9{fill:#FFFFFF;}
	.st10{opacity:0.84;fill:#BD1E21;enable-background:new    ;}
	.st11{fill:#CD1F25;}
	.st12{fill:#BC1E21;}
	.st13{fill:#8F1915;}
	.st14{fill:#921A16;}
	.st15{fill:#961A18;}
	.st16{fill:#9A1B19;}
	.st17{fill:#9E1B1A;}
	.st18{fill:#A11C1B;}
	.st19{fill:#A51C1C;}
	.st20{fill:#A81C1C;}
	.st21{fill:#AC1D1D;}
	.st22{fill:#B01D1E;}
	.st23{fill:#B31D1F;}
</style>
<g id="Layer_2">
</g>
<g id="Layer_1">
	<path class="st0" d="M28.7,218.8l199.4-115.9l151,87.2L179.7,306L28.7,218.8z"/>
	<path class="st1" d="M332.3,177.4l0.6-0.3l1.1,0.7l-0.6,0.3l20,11.6l-28.2,16.4l0.6,0.3l-1.1,0.7l-0.6-0.3L296,223.1l0.6,0.3
		l-1.2,0.7l-0.6-0.3l-28.2,16.4l0.6,0.3l-1.1,0.7l-0.6-0.3l-28.2,16.4l0.6,0.3l-1.1,0.7l-0.6-0.3l-28.2,16.4l0.6,0.3l-1.1,0.7
		l-0.6-0.3l-28.2,16.4l-20-11.6l-0.6,0.3l-1.1-0.7l0.6-0.3l-20.1-11.6l-0.6,0.3l-1.1-0.7l0.6-0.3l-20-11.6l-0.6,0.3l-1.1-0.7
		l0.6-0.3l-20-11.6l-0.6,0.3l-1.1-0.7l0.6-0.3l-20-11.6l-0.6,0.3l-1.2-0.7l0.6-0.3l-20-11.6l28.2-16.4l-0.6-0.3l1.1-0.7l0.6,0.3
		l28.2-16.4l-0.6-0.3l1.1-0.7l0.6,0.3l28.2-16.4l-0.6-0.3l1.1-0.7l0.6,0.3l28.2-16.4l-0.6-0.3l1.1-0.7l0.6,0.3l28.2-16.4l-0.6-0.3
		l1.1-0.7l0.6,0.3l28.2-16.4l20,11.6l0.6-0.3l1.1,0.7l-0.6,0.3l20,11.6l0.6-0.3l1.2,0.7l-0.6,0.3l20,11.6l0.6-0.3l1.1,0.7l-0.6,0.3
		l20,11.6l0.6-0.3l1.1,0.7l-0.6,0.3L332.3,177.4L332.3,177.4z M355.8,189.7l-128.3-74.1L50.4,218.5l128.3,74.1L355.8,189.7"/>
	<path class="st1" d="M102.1,213.1l-20-11.6l-0.6-0.3l-1.1,0.7l0.6,0.3l20,11.6L102.1,213.1L102.1,213.1z M123.3,225.3l-20-11.6
		l-1.1,0.7l20,11.6L123.3,225.3z M144.5,237.5l-20-11.6l-1.1,0.7l20,11.6L144.5,237.5z M165.6,249.8l-20-11.6l-1.1,0.7l20,11.6
		L165.6,249.8z M186.8,262l-20-11.6l-1.1,0.7l20,11.6L186.8,262L186.8,262z M208.6,274.5l-0.6-0.3l-20-11.6l-1.1,0.7l20.1,11.6
		l0.6,0.3L208.6,274.5"/>
	<path class="st1" d="M131.4,196l-20-11.6l-0.6-0.3l-1.1,0.7l0.6,0.3l20,11.6L131.4,196z M152.6,208.3l-20-11.6l-1.1,0.7l20,11.6
		L152.6,208.3z M173.8,220.5l-20-11.6l-1.1,0.7l20,11.6L173.8,220.5z M195,232.7l-20-11.6l-1.1,0.7l20,11.6L195,232.7z M216.1,245
		l-20-11.6l-1.1,0.7l20,11.6L216.1,245L216.1,245z M237.9,257.5l-0.6-0.3l-20-11.6l-1.1,0.6l20,11.6l0.6,0.3L237.9,257.5"/>
	<path class="st1" d="M160.7,179l-20-11.6l-0.6-0.3l-1.1,0.7l0.6,0.3l20,11.6L160.7,179z M181.9,191.2l-20-11.6l-1.1,0.7l20,11.6
		L181.9,191.2z M203.1,203.5l-20-11.6l-1.1,0.7l20,11.6L203.1,203.5L203.1,203.5z M224.3,215.7l-20-11.6l-1.1,0.7l20,11.6
		L224.3,215.7L224.3,215.7z M245.5,227.9l-20-11.6l-1.1,0.7l20,11.6L245.5,227.9L245.5,227.9z M267.2,240.5l-0.6-0.3l-20-11.6
		l-1.1,0.7l20,11.6l0.6,0.3L267.2,240.5"/>
	<path class="st1" d="M190.1,161.9l-20-11.6l-0.6-0.3l-1.1,0.7l0.6,0.3l20,11.6L190.1,161.9z M211.2,174.2l-20.1-11.6l-1.1,0.7
		l20.1,11.6L211.2,174.2L211.2,174.2z M232.4,186.4l-20-11.6l-1.1,0.7l20,11.6L232.4,186.4z M253.6,198.6l-20-11.6l-1.1,0.7l20,11.6
		L253.6,198.6z M274.8,210.9l-20-11.6l-1.1,0.7l20,11.6L274.8,210.9L274.8,210.9z M296.6,223.4l-0.6-0.3l-20-11.6l-1.1,0.7l20,11.6
		l0.6,0.3L296.6,223.4z"/>
	<path class="st1" d="M219.4,144.9l-20-11.6l-0.6-0.3l-1.1,0.7l0.6,0.3l20,11.6L219.4,144.9L219.4,144.9z M240.6,157.1l-20-11.6
		l-1.1,0.7l20,11.6L240.6,157.1z M261.8,169.4l-20-11.6l-1.1,0.7l20,11.6L261.8,169.4z M283,181.6l-20-11.6l-1.1,0.7l20,11.6
		L283,181.6z M304.1,193.8l-20-11.6l-1.1,0.7l20,11.6L304.1,193.8z M325.9,206.4l-0.6-0.3l-20-11.6l-1.1,0.7l20,11.6l0.6,0.3
		L325.9,206.4z"/>
	<path class="st1" d="M334,177.8l-1.1-0.7l-0.6,0.3l-28.2,16.4l-1.1,0.7l-28.2,16.4l-1.1,0.7l-28.2,16.4l-1.1,0.7L216.2,245
		l-1.1,0.7L186.8,262l-1.1,0.7L157.5,279l-0.6,0.3l1.1,0.7l0.6-0.3l28.2-16.4l1.1-0.7l28.2-16.4l1.1-0.7l28.2-16.4l1.1-0.7
		l28.2-16.4l1.1-0.7l28.2-16.4l1.1-0.7l28.2-16.4L334,177.8z"/>
	<path class="st1" d="M312.8,165.5l-1.1-0.7l-0.6,0.3l-28.2,16.4l-1.1,0.7l-28.2,16.4l-1.1,0.7l-28.2,16.4l-1.1,0.7L195,232.7
		l-1.1,0.7l-28.2,16.4l-1.1,0.7l-28.2,16.4l-0.6,0.3l1.1,0.7l0.6-0.3l28.2-16.4l1.1-0.7L195,234l1.1-0.7l28.2-16.4l1.1-0.7
		l28.2-16.4l1.1-0.7l28.2-16.4l1.1-0.7l28.2-16.4L312.8,165.5z"/>
	<path class="st1" d="M291.7,153.3l-1.1-0.7l-0.6,0.3l-28.2,16.4l-1.1,0.7l-28.2,16.4l-1.1,0.7l-28.2,16.4l-1.1,0.7l-28.2,16.4
		l-1.1,0.7l-28.2,16.4l-1.1,0.7l-28.2,16.4l-0.6,0.3l1.1,0.7l0.6-0.3l28.2-16.4l1.1-0.7l28.2-16.4l1.1-0.7l28.2-16.4l1.1-0.7
		l28.2-16.4l1.1-0.7l28.2-16.4l1.1-0.7l28.2-16.4L291.7,153.3z"/>
	<path class="st1" d="M270.5,141.1l-1.1-0.7l-0.6,0.3l-28.2,16.4l-1.1,0.7l-28.2,16.4l-1.1,0.7l-28.2,16.4l-1.1,0.7l-28.2,16.4
		l-1.1,0.7l-28.2,16.4l-1.1,0.7l-28.2,16.4l-0.6,0.3l1.1,0.7l0.6-0.3l28.2-16.4l1.1-0.7l28.2-16.4l1.1-0.7l28.2-16.4l1.1-0.7
		l28.2-16.4l1.1-0.7l28.2-16.4l1.1-0.7l28.2-16.4L270.5,141.1z"/>
	<path class="st1" d="M249.3,128.8l-1.1-0.7l-0.6,0.3l-28.2,16.4l-1.1,0.7l-28.2,16.4l-1.1,0.7L160.7,179l-1.1,0.7L131.4,196
		l-1.1,0.7l-28.2,16.4l-1.1,0.7l-28.2,16.4l-0.6,0.3l1.1,0.7l0.6-0.3l28.2-16.4l1.1-0.7l28.2-16.4l1.1-0.7l28.2-16.4l1.1-0.7
		l28.2-16.4l1.1-0.7l28.2-16.4l1.1-0.7l28.2-16.4L249.3,128.8z"/>
	<path class="st2" d="M173.5,101.3c2-1.1,2.1-4.9,0.1-8.3c-2-3.5-5.2-5.4-7.2-4.2c-2,1.1-2.1,4.9-0.1,8.3
		C168.3,100.6,171.5,102.4,173.5,101.3z"/>
	<path d="M183.4,92.9c0-0.1,0-0.2,0-0.3c0,0,0-0.1,0-0.1v0c0,0,0-0.1,0-0.1c0-0.1,0-0.2,0-0.3c0-0.1,0-0.2,0-0.2l0-0.3
		c0-0.1,0-0.2-0.1-0.3v-0.1v-0.1c0-0.1,0-0.1,0-0.2c0-0.1-0.1-0.2-0.1-0.3l0-0.1l0-0.1l0-0.2c0-0.1-0.1-0.2-0.1-0.3c0,0,0,0,0-0.1
		l0-0.1l-0.1-0.2c0-0.1-0.1-0.2-0.1-0.2c0-0.1,0-0.1-0.1-0.2c0-0.1,0-0.1,0-0.1c0-0.1-0.1-0.2-0.1-0.3c0-0.1-0.1-0.2-0.1-0.3l0-0.1
		c-0.1-0.1-0.1-0.2-0.2-0.3c-0.1-0.1-0.1-0.2-0.1-0.2c0-0.1-0.2-0.3-0.2-0.4l-0.1-0.2c-0.1-0.2-0.2-0.4-0.4-0.6l0,0
		c-0.1-0.2-0.2-0.3-0.4-0.5c0-0.1-0.1-0.1-0.2-0.2l-0.3-0.3l0,0l-0.1-0.1c-0.1-0.1-0.1-0.1-0.2-0.2c-0.1-0.1-0.1-0.1-0.1-0.1
		l-0.1-0.1l-0.1-0.1l-0.3-0.2l-0.1-0.1l-0.1,0l-0.1-0.1l-0.2-0.2l-0.2-0.1h0l0,0l-0.2-0.1l-0.2-0.1l-0.1,0l-0.2-0.1l-0.2-0.1
		l-0.1-0.1h0h0l-0.2-0.1c-0.1,0-0.1-0.1-0.2-0.1c0,0,0,0,0,0h0l-0.1,0l-0.2-0.1l-0.1,0h0h-0.1l-0.2,0h-0.1h-0.1h-0.2h-0.3
		c-0.1,0-0.2,0-0.3,0l-0.1,0c-0.1,0-0.2,0-0.3,0.1h0c-0.1,0-0.3,0.1-0.4,0.2l-8.3,4.8c0.1-0.1,0.3-0.1,0.4-0.2
		c0.1,0,0.2-0.1,0.3-0.1l0.1,0c0.1,0,0.2,0,0.4,0h0.1c0.1,0,0.3,0,0.4,0h0c0.1,0,0.3,0,0.4,0.1h0c0.1,0,0.3,0.1,0.4,0.1h0
		c0.2,0.1,0.3,0.1,0.5,0.2h0c0.2,0.1,0.3,0.2,0.5,0.3c0.2,0.1,0.3,0.2,0.5,0.3l0,0c0.2,0.1,0.3,0.2,0.5,0.3l0.1,0
		c0.1,0.1,0.3,0.2,0.4,0.4l0.1,0.1c0.1,0.1,0.2,0.2,0.4,0.4l0.1,0.1c0.1,0.1,0.2,0.2,0.3,0.3c0.1,0.1,0.1,0.1,0.2,0.2
		c0.1,0.2,0.3,0.3,0.4,0.5l0,0c0.1,0.2,0.3,0.4,0.4,0.6c0,0.1,0.1,0.1,0.1,0.2c0.1,0.1,0.2,0.3,0.2,0.4c0.1,0.1,0.1,0.2,0.1,0.2
		c0,0.1,0.1,0.2,0.2,0.4l0.1,0.3c0.1,0.1,0.1,0.2,0.2,0.4c0,0.1,0,0.1,0.1,0.2c0.1,0.2,0.1,0.3,0.2,0.5l0,0.1
		c0.1,0.2,0.1,0.4,0.2,0.6l0,0.1c0.1,0.2,0.1,0.4,0.2,0.6v0.1c0,0.2,0.1,0.4,0.1,0.6c0,0.2,0.1,0.4,0.1,0.6c0,0,0,0,0,0
		c0,0.2,0,0.4,0,0.6s0,0.4,0,0.6c0,0,0,0,0,0c0,0.2,0,0.3-0.1,0.5c0,0,0,0,0,0.1c0,0.1-0.1,0.3-0.1,0.4l0,0.1c0,0.1-0.1,0.2-0.1,0.4
		l0,0.1c-0.1,0.1-0.1,0.3-0.2,0.4l0,0c-0.1,0.1-0.1,0.2-0.2,0.3l-0.1,0.1c-0.1,0.1-0.1,0.1-0.2,0.2l-0.1,0.1
		c-0.1,0.1-0.2,0.1-0.3,0.2l8.3-4.8c0.1-0.1,0.2-0.1,0.3-0.2l0.1-0.1c0.1-0.1,0.1-0.1,0.2-0.2c0,0,0.1-0.1,0.1-0.1
		c0.1-0.1,0.1-0.2,0.2-0.3v-0.1c0.1-0.1,0.1-0.2,0.2-0.4c0,0,0,0,0,0l0-0.1c0-0.1,0.1-0.1,0.1-0.2l0-0.1l0-0.1c0,0,0,0,0-0.1
		c0-0.1,0-0.2,0.1-0.3c0,0,0-0.1,0-0.1c0,0,0,0,0-0.1c0,0,0-0.1,0-0.1c0,0,0-0.2,0-0.2c0-0.1,0-0.1,0-0.1s0,0,0,0c0,0,0,0,0-0.1
		s0-0.2,0-0.2c0-0.1,0-0.2,0-0.3C183.4,93.1,183.4,93,183.4,92.9z"/>
	<path class="st3" d="M264.3,81.5v156.3c-6-3.5-11.6-7.7-16.7-12.6c-1.6-1.5-3.3-3.1-4.9-4.8c-2.6-2.8-5.1-5.7-7.6-8.8
		c-8.5-10.8-15.3-22.9-20.2-35.8c-4.8-12.7-7.4-25.4-7.4-36.8v-29.5l3.3,0.1l1.1,0.1l17.4,0.6l-21.8-12.6V87.6l3.1,11.8l16.4,0.6
		l1.1,0.1l17.5,0.7l-49-28.3c-14.4-8.4-28.4-10.2-39-5c-1.2,0.6-2.3,1.2-3.4,2l-24.3,14.2V4L264.3,81.5z"/>
	<path class="st4" d="M138.6,79.3l8.3-4.8l-24.2,14.2l-8.3,4.8L138.6,79.3z"/>
	<path class="st5" d="M140.4,78.1l8.3-4.8c-0.6,0.4-1.3,0.8-1.9,1.2l-8.3,4.8C139.2,78.9,139.8,78.5,140.4,78.1z"/>
	<path d="M191.5,97.3l8.3-4.8l3.1,11.7l-8.3,4.8L191.5,97.3z"/>
	<path d="M194.6,109l8.3-4.8l16.3,0.6l-8.3,4.8L194.6,109z"/>
	<path d="M210.9,109.6l8.3-4.8l1.1,0.1l-8.3,4.8L210.9,109.6z"/>
	<path d="M212,109.7l8.3-4.8l17.4,0.6l-8.3,4.8L212,109.7z"/>
	<path d="M114.6,14.1l8.3-4.8l133.4,77l-8.3,4.8L114.6,14.1z"/>
	<path d="M248,91.1l8.3-4.8L255.9,242l-8.3,4.8L248,91.1z"/>
	<path class="st2" d="M248,91.1l-0.4,134.1l-0.1,21.6c-7.4-4.3-14.6-10.1-21.4-17.3c-2.6-2.7-5.1-5.7-7.5-8.8
		c-8.4-10.8-15.2-22.8-20-35.6c-4.8-12.7-7.3-25.3-7.2-36.7l0.1-51.2l3.1,11.7l13,0.5l3.3,0.1l1.1,0.1l17.4,0.6l-21.8-12.6
		l-26.9-15.5c-14.5-8.4-28.3-10.1-38.8-4.9c-1.2,0.6-2.3,1.2-3.3,2l-24.2,14.2l0.2-79.4l15.5,8.9L248,91.1z"/>
	<path d="M309.4,265.8l-1.4-0.8l0,11.5l1.4,0.8L309.4,265.8L309.4,265.8z M309.4,242.8L308,242l0,11.5l1.4,0.8L309.4,242.8
		L309.4,242.8z M309.5,219.7l-1.4-0.8l0,11.5l1.4,0.8L309.5,219.7L309.5,219.7z M309.6,196.7l-1.4-0.8l0,11.5l1.4,0.8L309.6,196.7
		L309.6,196.7z M309.6,173.6l-1.4-0.8l0,11.5l1.4,0.8L309.6,173.6L309.6,173.6z M309.7,150.6l-1.4-0.8l0,11.5l1.4,0.8L309.7,150.6
		L309.7,150.6z M309.8,127.5l-1.4-0.8l0,11.5l1.4,0.8L309.8,127.5L309.8,127.5z M309.8,104.5l-1.4-0.8l0,11.5l1.4,0.8L309.8,104.5
		L309.8,104.5z M309.9,81.4l-1.4-0.8l0,11.5l1.4,0.8L309.9,81.4z"/>
	<path class="st6" d="M280.8,66.9l7.4-4.3l7.3-4.1l-7.4,4.3L280.8,66.9z"/>
	<g class="st7">
		<path class="st8" d="M314.4,90.5l7.4-4.3l0,11.8l-7.4,4.3L314.4,90.5z"/>
	</g>
	<g class="st7">
		<path class="st8" d="M275.1,34.3l7.4-4.3l10.2,5.9l-7.4,4.3L275.1,34.3z"/>
	</g>
	<path class="st9" d="M317,75.4c0.2-0.1,0.3-0.2,0.5-0.2l7.4-4.3c-0.1,0.1-0.3,0.2-0.5,0.2l-0.2,0.1c-0.1,0-0.2,0.1-0.3,0.1
		l-0.3,0.1l-0.2,0.1c-0.1,0-0.2,0.1-0.3,0.1l-0.1,0h-0.1c-0.2,0-0.4,0.1-0.6,0.1h-0.2c-0.1,0-0.3,0-0.4,0h-0.2h-0.3h-0.3l-0.3,0
		l-0.3,0l-0.2,0l-0.3-0.1l-0.2,0l-0.3-0.1l-0.2-0.1l-0.4-0.1l-0.2-0.1c-0.2-0.1-0.4-0.1-0.6-0.2c-0.2-0.1-0.4-0.2-0.6-0.2l-0.2-0.1
		l-0.4-0.2l-0.2-0.1c-0.2-0.1-0.4-0.2-0.5-0.3c-0.2-0.1-0.4-0.2-0.6-0.4l0,0c-0.2-0.1-0.4-0.2-0.6-0.4l-0.2-0.1l-0.4-0.3l-0.2-0.2
		l-0.3-0.3l-0.3-0.2l-0.3-0.2l-0.4-0.3l-0.2-0.2c-0.2-0.2-0.3-0.3-0.5-0.5c0,0-0.1-0.1-0.1-0.1c-0.2-0.2-0.5-0.5-0.7-0.7l-0.1-0.2
		c-0.3-0.3-0.6-0.7-0.9-1l-0.1-0.1c-0.3-0.4-0.6-0.7-0.9-1.1l-0.1-0.1c-0.3-0.4-0.6-0.8-0.8-1.2c0,0,0,0,0,0
		c-0.3-0.4-0.5-0.8-0.8-1.3l0-0.1c-0.2-0.4-0.5-0.8-0.7-1.3c0,0,0-0.1-0.1-0.1c-0.2-0.4-0.4-0.8-0.6-1.3l-0.1-0.2
		c-0.1-0.3-0.3-0.6-0.4-1c0-0.1-0.1-0.2-0.1-0.2c-0.1-0.2-0.2-0.4-0.2-0.6l-0.1-0.3c0-0.1-0.1-0.3-0.1-0.4l-0.1-0.4
		c0-0.1-0.1-0.3-0.1-0.4l-0.1-0.4c0-0.1-0.1-0.2-0.1-0.3c0-0.1-0.1-0.3-0.1-0.4l-0.1-0.3l-0.1-0.5c0-0.1,0-0.2-0.1-0.3
		c0-0.2-0.1-0.4-0.1-0.6v-0.1c0-0.2-0.1-0.5-0.1-0.7l0-0.2l0-0.5c0-0.1,0-0.2,0-0.2c0-0.2,0-0.3,0-0.5c0-0.1,0-0.1,0-0.2
		c0-0.2,0-0.4,0-0.7c0-0.2,0-0.5,0-0.7c0-0.1,0-0.1,0-0.2c0-0.2,0-0.3,0-0.4c0-0.1,0-0.2,0-0.3c0-0.1,0-0.2,0-0.4c0-0.1,0-0.2,0-0.3
		c0-0.1,0-0.2,0.1-0.3l0.1-0.3c0-0.1,0-0.2,0.1-0.3c0-0.1,0.1-0.2,0.1-0.3c0-0.1,0-0.2,0.1-0.3c0-0.1,0.1-0.3,0.1-0.4
		c0-0.1,0-0.1,0.1-0.2c0.1-0.2,0.2-0.4,0.3-0.6c0.1-0.2,0.1-0.3,0.2-0.4c0.1-0.1,0.2-0.3,0.3-0.4c0.1-0.2,0.3-0.4,0.4-0.6l0.1-0.1
		c0.1-0.2,0.3-0.3,0.4-0.5l0,0c0.2-0.2,0.3-0.3,0.5-0.4l0.1-0.1c0.2-0.1,0.4-0.3,0.5-0.4l-7.4,4.3c-0.2,0.1-0.4,0.2-0.5,0.4
		l-0.1,0.1c-0.2,0.1-0.3,0.3-0.5,0.4l0,0c-0.1,0.1-0.3,0.3-0.4,0.5l-0.1,0.1c-0.1,0.2-0.3,0.4-0.4,0.6l0,0c-0.1,0.1-0.2,0.3-0.2,0.4
		c-0.1,0.1-0.1,0.3-0.2,0.4c0,0,0,0,0,0c-0.1,0.2-0.2,0.4-0.3,0.6l0,0.1l0,0.2c0,0.1-0.1,0.3-0.1,0.4l0,0.1c0,0,0,0.1,0,0.2
		c0,0.1-0.1,0.2-0.1,0.3c0,0,0,0.1,0,0.1c0,0.1,0,0.1,0,0.2l-0.1,0.3c0,0.1,0,0.1,0,0.2s0,0.1,0,0.2c0,0.1,0,0.2,0,0.3
		c0,0.1,0,0.1,0,0.1l0,0.2l0,0.3V52c0,0.1,0,0.2,0,0.3v0.2c0,0,0,0,0,0c0,0.2,0,0.4,0,0.6v0c0,0.2,0,0.4,0,0.6c0,0,0,0.1,0,0.1
		c0,0.1,0,0.1,0,0.2v0.3c0,0.1,0,0.1,0,0.2s0,0.2,0,0.2v0.2l0,0.3l0,0.2c0,0,0,0,0,0.1c0,0.2,0.1,0.4,0.1,0.6v0.1
		c0,0.2,0.1,0.4,0.1,0.6c0,0,0,0.1,0,0.1c0,0,0,0.2,0.1,0.3c0,0.1,0,0.2,0.1,0.3c0,0,0,0.1,0,0.1l0.1,0.3c0,0.1,0,0.2,0.1,0.2l0,0.2
		c0,0.1,0.1,0.2,0.1,0.3c0,0.1,0,0.1,0.1,0.2c0,0.1,0,0.1,0.1,0.2l0.1,0.4c0,0.1,0,0.1,0.1,0.2l0.1,0.2l0.1,0.4c0,0.1,0,0.1,0.1,0.2
		c0,0.1,0,0.1,0.1,0.1c0.1,0.2,0.2,0.4,0.2,0.6l0.1,0.2c0,0,0,0,0,0.1c0.1,0.3,0.3,0.6,0.4,1l0,0.1c0,0,0,0.1,0,0.1
		c0.2,0.4,0.4,0.8,0.6,1.3c0,0,0,0,0,0l0,0.1c0.2,0.4,0.5,0.8,0.7,1.3c0,0,0,0,0,0.1c0.2,0.4,0.5,0.8,0.8,1.3v0
		c0.3,0.4,0.5,0.8,0.8,1.2l0.1,0.1c0.3,0.4,0.6,0.7,0.9,1.1l0.1,0.1l0,0c0.3,0.4,0.6,0.7,0.9,1c0,0,0.1,0.1,0.1,0.1l0.1,0.1
		c0.2,0.2,0.5,0.5,0.7,0.7l0.1,0.1c0.2,0.2,0.3,0.3,0.5,0.5c0,0,0,0,0.1,0.1l0.2,0.2l0.4,0.3l0.1,0.1l0.2,0.2l0.3,0.2l0.1,0.1
		c0.1,0.1,0.1,0.1,0.2,0.2l0.2,0.2l0.1,0.1l0.3,0.2l0.2,0.1l0,0c0.2,0.1,0.4,0.2,0.5,0.3l0,0c0.2,0.1,0.3,0.2,0.5,0.3l0.1,0.1
		c0.1,0.1,0.3,0.2,0.4,0.2l0.1,0.1l0.2,0.1l0.2,0.1c0.1,0,0.2,0.1,0.2,0.1l0.2,0.1l0.1,0c0.2,0.1,0.3,0.1,0.5,0.2
		c0.2,0.1,0.3,0.1,0.5,0.2h0.1l0.2,0.1l0.2,0.1l0.1,0l0.2,0.1l0.2,0l0.2,0l0.2,0l0.1,0l0.2,0l0.2,0h0.1l0.2,0l0.3,0h0.1h0.2h0.3h0.1
		h0.1c0.1,0,0.3,0,0.4,0h0.1h0.1c0.2,0,0.4,0,0.6-0.1h0l0.1,0l0.3-0.1c0.1,0,0.1,0,0.2,0l0.2-0.1l0.1,0c0.1,0,0.2-0.1,0.3-0.1
		L317,75.4z"/>
	<g class="st7">
		<path class="st8" d="M329.3,86.6l7.4-4.3l7.2,12.5l-7.4,4.3L329.3,86.6z"/>
	</g>
	<path class="st6" d="M280.9,21.5l7.4-4.3l8.1-4.6l-7.4,4.3L280.9,21.5z"/>
	<g class="st7">
		<path class="st8" d="M289.1,16.9l7.4-4.3l7.2,12.5l-7.4,4.3L289.1,16.9z"/>
	</g>
	<path class="st9" d="M339.3,77c0.1-0.3,0.2-0.6,0.2-0.9l-7.4,4.3c-0.1,0.3-0.2,0.6-0.2,0.9c-0.1,0.4-0.2,0.8-0.4,1.1
		c0,0.1-0.1,0.3-0.1,0.4l-0.1,0.3c-0.1,0.2-0.1,0.3-0.2,0.5c0,0.1-0.1,0.2-0.1,0.3c0,0.1-0.1,0.2-0.2,0.3c-0.1,0.1-0.2,0.3-0.2,0.5
		c-0.1,0.2-0.1,0.2-0.2,0.3c-0.1,0.1-0.2,0.3-0.3,0.4c-0.1,0.1-0.2,0.3-0.2,0.4c0,0.1-0.1,0.1-0.1,0.2c-0.1,0.2-0.3,0.4-0.4,0.6
		l7.4-4.3c0.1-0.2,0.3-0.4,0.4-0.6c0-0.1,0.1-0.1,0.1-0.2c0-0.1,0.1-0.2,0.2-0.2l0.1-0.1c0.1-0.1,0.2-0.3,0.3-0.4
		c0.1-0.1,0.1-0.2,0.2-0.3c0.1-0.1,0.2-0.3,0.2-0.5c0-0.1,0.1-0.2,0.1-0.2c0-0.1,0-0.1,0-0.1l0.1-0.3c0.1-0.2,0.1-0.3,0.2-0.5
		l0.1-0.3l0.1-0.2c0,0,0-0.1,0-0.1C339.1,77.8,339.2,77.4,339.3,77L339.3,77z"/>
	<path class="st9" d="M297.8,29.3h0.3c0.3,0,0.6,0,0.9,0c0.1,0,0.2,0,0.3,0c0.2,0,0.5,0,0.7,0.1l0.3,0c0.2,0,0.5,0.1,0.7,0.1l0.3,0
		c0.3,0.1,0.6,0.1,0.9,0.2c0.3,0.1,0.6,0.2,0.9,0.2l7.4-4.3c-0.6-0.2-1.2-0.3-1.9-0.5h-0.1l-0.2,0c-0.2,0-0.5-0.1-0.7-0.1h-0.1
		c-0.1,0-0.1,0-0.2,0c-0.2,0-0.5-0.1-0.7-0.1l-0.2,0h-0.1c-0.3,0-0.6,0-0.9,0c0,0-0.1,0-0.1,0h-0.2c-0.2,0-0.4,0-0.6,0h-0.2h-0.2
		l-0.4,0l-7.4,4.3c0.2,0,0.4,0,0.7-0.1h0.2C297.4,29.3,297.6,29.3,297.8,29.3z"/>
	<path class="st9" d="M330.2,60c0.2,0.5,0.3,1,0.5,1.5l0.1,0.4c0.1,0.3,0.2,0.7,0.3,1c0,0.2,0.1,0.3,0.1,0.5
		c0.1,0.3,0.2,0.6,0.2,0.8c0,0.2,0.1,0.3,0.1,0.5c0.1,0.3,0.1,0.5,0.2,0.8c0,0.2,0.1,0.3,0.1,0.5c0.1,0.3,0.1,0.5,0.2,0.8l0.1,0.5
		l7.4-4.3l0-0.1l-0.1-0.4c-0.1-0.3-0.1-0.5-0.2-0.8c0,0,0-0.1,0-0.1l-0.1-0.4c-0.1-0.3-0.1-0.5-0.2-0.8c0-0.1,0-0.1,0-0.2
		c0-0.1-0.1-0.2-0.1-0.3c-0.1-0.3-0.1-0.6-0.2-0.8c0-0.1,0-0.2-0.1-0.3c0-0.1,0-0.2-0.1-0.2c-0.1-0.3-0.2-0.7-0.3-1
		c0-0.1-0.1-0.2-0.1-0.3l0-0.1c-0.2-0.5-0.3-1-0.5-1.5l0-0.1c0-0.1,0-0.1-0.1-0.2c-0.2-0.5-0.4-1-0.5-1.4c0-0.1-0.1-0.1-0.1-0.2
		l-0.1-0.3l-7.4,4.3c0.1,0.2,0.1,0.4,0.2,0.5c0.2,0.5,0.4,0.9,0.5,1.4L330.2,60z"/>
	<path class="st9" d="M316.8,38.8l0.3,0.3l0.3,0.3c0.2,0.2,0.3,0.3,0.5,0.5l0.3,0.4l0.4,0.5l0.6,0.7l0.3,0.4
		c0.2,0.3,0.5,0.6,0.7,0.8l0.2,0.2c0.3,0.3,0.6,0.7,0.8,1l7.4-4.3c-0.3-0.3-0.5-0.7-0.8-1l0,0l-0.2-0.2c-0.2-0.3-0.5-0.6-0.7-0.8
		c-0.1-0.1-0.2-0.2-0.3-0.4c-0.2-0.2-0.4-0.5-0.6-0.7l-0.2-0.2l-0.3-0.3c-0.1-0.1-0.2-0.2-0.3-0.4c-0.1-0.1-0.3-0.3-0.5-0.5
		l-0.3-0.3l-0.1-0.1l-0.2-0.2c-0.3-0.3-0.7-0.7-1-1c-0.1,0-0.1-0.1-0.2-0.2l-0.1-0.1c-0.3-0.3-0.7-0.6-1-0.9l-7.4,4.3
		c0.3,0.3,0.7,0.6,1,0.9l0.3,0.2C316.2,38.1,316.5,38.4,316.8,38.8z"/>
	<g class="st7">
		<path class="st8" d="M332.2,67.3l7.4-4.3l10.2,5.9l-7.4,4.3L332.2,67.3z"/>
	</g>
	<path class="st9" d="M342.4,73.2l7.4-4.3l0,13.1l-7.4,4.3L342.4,73.2z"/>
	<path class="st9" d="M303.1,18.3l7.4-4.3l11.4,6.6l-7.4,4.3L303.1,18.3z"/>
	<g class="st7">
		<path class="st8" d="M314.6,24.9l7.4-4.3l0,11.8l-7.4,4.3L314.6,24.9z"/>
	</g>
	<path class="st9" d="M328.6,39.7l7.4-4.3l8.1,14l-7.4,4.3L328.6,39.7z"/>
	<path class="st6" d="M321.3,43.8l7.4-4.3l7.3-4.1l-7.4,4.3L321.3,43.8z"/>
	<path d="M342.4,86.3l-10.2-5.9c-0.5,2.2-1.5,4.4-2.8,6.2l7.2,12.5l-8.1,4.6l-7.2-12.5c-2.3,0.2-4.6,0-6.8-0.7l0,11.8l-11.4-6.6
		l0-11.8c-2.5-2.2-4.8-4.6-6.8-7.2l-7.3,4.1l-8-14l7.3-4.1c-1.3-3-2.2-6.2-2.8-9.5L275,47.4l0-13.1l10.2,5.9
		c0.5-2.2,1.5-4.4,2.8-6.2l-7.2-12.5l8.1-4.6l7.2,12.5c2.3-0.2,4.6,0,6.8,0.7l0-11.8l11.4,6.6l0,11.8c2.5,2.2,4.8,4.6,6.8,7.2
		l7.2-4.1l8,14l-7.2,4.1c1.3,3.1,2.2,6.2,2.8,9.5l10.2,5.9L342.4,86.3z M308.7,74.4c6.8,3.9,12.3,0.8,12.3-7
		c0-7.8-5.4-17.2-12.2-21.1c-6.8-3.9-12.3-0.8-12.3,7S301.9,70.5,308.7,74.4"/>
	<path class="st6" d="M293.7,297.8l3.5-2l3.4-2l-3.5,2L293.7,297.8z"/>
	<g class="st7">
		<path class="st8" d="M309.6,308.9l3.5-2l0,5.6l-3.5,2L309.6,308.9z"/>
	</g>
	<g class="st7">
		<path class="st8" d="M291,282.3l3.5-2l4.8,2.8l-3.5,2L291,282.3z"/>
	</g>
	<path class="st9" d="M310.8,301.8c0.1,0,0.1-0.1,0.2-0.1l3.5-2c-0.1,0-0.1,0.1-0.2,0.1l-0.1,0c0,0-0.1,0-0.2,0.1l-0.1,0l-0.1,0
		l-0.2,0h-0.1h0c-0.1,0-0.2,0-0.3,0h-0.1H313h-0.3h-0.1h-0.1h-0.1h-0.1l-0.1,0l-0.1,0l-0.2,0l-0.1,0l-0.2-0.1l-0.1,0
		c-0.1,0-0.2-0.1-0.3-0.1c-0.1,0-0.2-0.1-0.3-0.1l-0.1,0l-0.2-0.1l-0.1-0.1l-0.3-0.1l-0.3-0.2l-0.3-0.2l-0.1-0.1l-0.2-0.1l-0.1-0.1
		l-0.2-0.1l-0.1-0.1l-0.1-0.1l-0.2-0.1l-0.1-0.1c-0.1-0.1-0.2-0.1-0.2-0.2l-0.1-0.1c-0.1-0.1-0.2-0.2-0.3-0.3l-0.1-0.1
		c-0.1-0.2-0.3-0.3-0.4-0.5c0,0,0,0-0.1-0.1c-0.1-0.2-0.3-0.3-0.4-0.5l0,0c-0.1-0.2-0.3-0.4-0.4-0.6c-0.1-0.2-0.2-0.4-0.4-0.6v0
		c-0.1-0.2-0.2-0.4-0.3-0.6l0-0.1c-0.1-0.2-0.2-0.4-0.3-0.6l0-0.1l-0.2-0.5c0,0,0-0.1,0-0.1s-0.1-0.2-0.1-0.3c0-0.1,0-0.1-0.1-0.2
		c0-0.1,0-0.1-0.1-0.2c0-0.1,0-0.1-0.1-0.2c0-0.1,0-0.1-0.1-0.2l-0.1-0.2l0-0.2l0-0.2c0,0,0-0.1,0-0.1l0-0.2l0-0.1
		c0-0.1,0-0.2-0.1-0.3c0,0,0,0,0,0c0-0.1,0-0.2,0-0.3v-0.1l0-0.2c0,0,0-0.1,0-0.1v-0.2c0,0,0-0.1,0-0.1c0-0.1,0-0.2,0-0.3
		c0-0.1,0-0.2,0-0.3c0,0,0-0.1,0-0.1c0,0,0-0.1,0-0.2v-0.1l0-0.2c0,0,0-0.1,0-0.1c0,0,0-0.1,0-0.2c0-0.1,0-0.1,0-0.1
		c0,0,0-0.1,0-0.1c0,0,0-0.1,0-0.2l0-0.1c0-0.1,0-0.1,0.1-0.2l0-0.1c0-0.1,0.1-0.2,0.1-0.3l0.1-0.2l0.1-0.2c0.1-0.1,0.1-0.2,0.2-0.3
		l0-0.1c0.1-0.1,0.1-0.1,0.2-0.2l0,0c0.1-0.1,0.2-0.1,0.2-0.2l0.1,0c0.1-0.1,0.2-0.1,0.3-0.2l-3.5,2c-0.1,0.1-0.2,0.1-0.3,0.2
		l-0.1,0c-0.1,0.1-0.2,0.1-0.2,0.2l0,0c-0.1,0.1-0.1,0.1-0.2,0.2l0,0.1c-0.1,0.1-0.1,0.2-0.2,0.3l0,0c0,0.1-0.1,0.1-0.1,0.2
		c0,0.1-0.1,0.1-0.1,0.2c0,0.1-0.1,0.2-0.1,0.3c0,0,0,0,0,0l0,0.1c0,0.1,0,0.1-0.1,0.2c0,0,0,0,0,0.1c0,0,0,0,0,0.1c0,0,0,0.1,0,0.2
		c0,0,0,0,0,0.1c0,0,0,0,0,0.1c0,0,0,0.1,0,0.1c0,0,0,0,0,0.1v0.1c0,0,0,0.1,0,0.1v0.1v0.1v0.1c0,0,0,0,0,0v0.2c0,0,0,0.1,0,0.1
		c0,0.1,0,0.2,0,0.3c0,0.1,0,0.2,0,0.3c0,0,0,0,0,0c0,0,0,0.1,0,0.1c0,0,0,0.1,0,0.1c0,0,0,0.1,0,0.1c0,0,0,0.1,0,0.1c0,0,0,0,0,0.1
		c0,0,0,0.1,0,0.2v0.1c0,0,0,0,0,0c0,0.1,0,0.2,0,0.3c0,0,0,0,0,0c0,0.1,0,0.2,0,0.3c0,0,0,0,0,0l0,0.1c0,0,0,0.1,0,0.1
		c0,0,0,0,0,0.1c0,0,0,0.1,0,0.1l0,0.1l0,0.1l0,0.2l0,0.1c0,0,0,0.1,0,0.1c0,0,0,0.1,0.1,0.2c0,0,0,0.1,0,0.1c0,0,0,0.1,0,0.1
		c0,0.1,0,0.1,0.1,0.2c0,0.1,0,0.1,0,0.1l0,0.1c0,0.1,0.1,0.2,0.1,0.3c0,0,0,0.1,0,0.1c0,0,0,0,0,0l0.2,0.5c0,0,0,0,0,0l0,0
		c0.1,0.2,0.2,0.4,0.3,0.6v0c0,0,0,0,0,0c0.1,0.2,0.2,0.4,0.3,0.6c0,0,0,0,0,0c0.1,0.2,0.2,0.4,0.4,0.6c0.1,0.2,0.3,0.4,0.4,0.6l0,0
		c0.1,0.2,0.3,0.4,0.4,0.5c0,0,0,0,0,0h0c0.1,0.2,0.3,0.3,0.4,0.5l0,0l0,0c0.1,0.1,0.2,0.2,0.3,0.3l0.1,0c0.1,0.1,0.2,0.2,0.2,0.2
		c0,0,0,0,0,0l0.1,0.1l0.2,0.1l0,0l0.1,0.1l0.1,0.1l0,0l0.1,0.1l0.1,0.1l0,0l0.1,0.1l0.1,0.1l0.2,0.2l0.2,0.1l0.1,0l0.2,0.1l0.1,0
		l0.1,0.1l0.1,0l0.1,0.1l0.1,0h0l0.2,0.1l0.2,0.1h0l0.1,0l0.1,0h0.1l0.1,0l0.1,0h0.1l0.1,0h0.1h0.1l0.1,0h0h0.1h0.1h0.1h0.1h0.1h0.2
		h0.1h0c0.1,0,0.2,0,0.3,0h0h0.1l0.2,0l0.1,0l0.1,0h0c0.1,0,0.1,0,0.2-0.1L310.8,301.8z"/>
	<g class="st7">
		<path class="st8" d="M316.6,307.1l3.5-2l3.4,5.9l-3.5,2L316.6,307.1z"/>
	</g>
	<path class="st6" d="M293.8,276.3l3.5-2l3.8-2.2l-3.5,2L293.8,276.3z"/>
	<g class="st7">
		<path class="st8" d="M297.6,274.1l3.5-2l3.4,5.9l-3.5,2L297.6,274.1z"/>
	</g>
	<path class="st9" d="M321.3,302.5c0-0.1,0.1-0.3,0.1-0.4l-3.5,2c0,0.1-0.1,0.3-0.1,0.4c0,0.1-0.1,0.4-0.2,0.5l-0.1,0.2
		c0,0,0,0.1-0.1,0.1l-0.1,0.2l-0.1,0.1l-0.1,0.2l-0.1,0.2l-0.1,0.1c0,0.1-0.1,0.1-0.1,0.2c0,0.1-0.1,0.1-0.1,0.2l-0.1,0.1
		c-0.1,0.1-0.1,0.2-0.2,0.3l3.5-2c0.1-0.1,0.1-0.2,0.2-0.3l0.1-0.1c0,0,0.1-0.1,0.1-0.1l0-0.1c0-0.1,0.1-0.1,0.1-0.2l0.1-0.1
		c0-0.1,0.1-0.2,0.1-0.2c0-0.1,0-0.1,0.1-0.1c0,0,0,0,0,0l0.1-0.1l0.1-0.2c0,0,0-0.1,0.1-0.1l0-0.1c0,0,0,0,0-0.1
		C321.2,302.9,321.3,302.7,321.3,302.5L321.3,302.5z"/>
	<path class="st9" d="M301.7,279.9h0.1h0.4h0.2l0.3,0l0.2,0l0.3,0.1h0.1l0.5,0.1l0.4,0.1l3.5-2c-0.3-0.1-0.6-0.2-0.9-0.2h0h-0.1
		l-0.3-0.1h-0.1h-0.1l-0.3-0.1h-0.1h-0.1c-0.1,0-0.3,0-0.4,0h-0.1c-0.1,0-0.2,0-0.3,0h-0.1h-0.1l-0.2,0l-3.5,2c0.1,0,0.2,0,0.3,0
		h0.1L301.7,279.9z"/>
	<path class="st9" d="M317.1,294.5c0.1,0.2,0.2,0.5,0.2,0.7c0,0.1,0,0.1,0.1,0.2c0.1,0.2,0.1,0.3,0.1,0.5c0,0.1,0,0.2,0.1,0.2
		c0,0.1,0.1,0.3,0.1,0.4l0.1,0.2c0,0.1,0.1,0.3,0.1,0.4c0,0.1,0,0.1,0.1,0.2c0,0.1,0.1,0.3,0.1,0.4l0,0.2l3.5-2v-0.1
		c0-0.1,0-0.1,0-0.2c0-0.1,0-0.3-0.1-0.4v0c0-0.1,0-0.1,0-0.2c0-0.1-0.1-0.3-0.1-0.4v-0.1c0-0.1,0-0.1,0-0.1c0-0.1-0.1-0.3-0.1-0.4
		c0,0,0-0.1,0-0.1c0,0,0-0.1,0-0.1c0-0.2-0.1-0.3-0.1-0.5c0,0,0-0.1,0-0.1c0,0,0,0,0,0c-0.1-0.2-0.1-0.5-0.2-0.7v0l0-0.1
		c-0.1-0.2-0.2-0.5-0.3-0.7l0-0.1l-0.1-0.1l-3.5,2l0.1,0.3c0.1,0.2,0.2,0.5,0.3,0.7L317.1,294.5z"/>
	<path class="st9" d="M310.7,284.4l0.1,0.1l0.2,0.2c0.1,0.1,0.2,0.2,0.2,0.2c0.1,0.1,0.1,0.1,0.2,0.2c0.1,0.1,0.1,0.1,0.2,0.2
		l0.3,0.3l0.2,0.2c0.1,0.1,0.2,0.3,0.3,0.4c0,0,0.1,0.1,0.1,0.1c0.1,0.2,0.3,0.3,0.4,0.5l3.5-2l-0.4-0.5l-0.1-0.1
		c-0.1-0.1-0.2-0.3-0.3-0.4l-0.2-0.2l-0.3-0.3l-0.1-0.1l-0.1-0.1l-0.2-0.2l-0.2-0.2c-0.1-0.1-0.1-0.1-0.2-0.2l-0.1-0.1l-0.1-0.1
		l-0.5-0.5l-0.1-0.1l0,0c-0.2-0.1-0.3-0.3-0.5-0.4l-3.5,2c0.2,0.1,0.3,0.3,0.5,0.4l0.1,0.1L310.7,284.4z"/>
	<g class="st7">
		<path class="st8" d="M318,297.9l3.5-2l4.8,2.8l-3.5,2L318,297.9z"/>
	</g>
	<path class="st9" d="M322.8,300.7l3.5-2l0,6.2l-3.5,2L322.8,300.7z"/>
	<path class="st9" d="M304.2,274.8l3.5-2l5.4,3.1l-3.5,2L304.2,274.8z"/>
	<g class="st7">
		<path class="st8" d="M309.7,277.9l3.5-2l0,5.6l-3.5,2L309.7,277.9z"/>
	</g>
	<path class="st9" d="M316.3,284.9l3.5-2l3.8,6.6l-3.5,2L316.3,284.9z"/>
	<path class="st6" d="M312.9,286.8l3.5-2l3.4-2l-3.5,2L312.9,286.8z"/>
	<path d="M322.8,306.9l-4.8-2.8c-0.2,1.1-0.7,2.1-1.3,2.9l3.4,5.9l-3.8,2.2l-3.4-5.9c-1.1,0.1-2.2,0-3.2-0.3v5.6l-5.4-3.1v-5.6
		c-1.2-1-2.3-2.2-3.2-3.4l-3.4,2l-3.8-6.6l3.4-2c-0.6-1.4-1-2.9-1.3-4.5l-4.8-2.8v-6.2l4.8,2.8c0.2-1.1,0.7-2.1,1.3-2.9l-3.4-5.9
		l3.8-2.2l3.4,5.9c1.1-0.1,2.2,0,3.2,0.3v-5.6l5.4,3.1v5.6c1.2,1,2.3,2.2,3.2,3.4l3.4-2l3.8,6.6l-3.4,2c0.6,1.4,1,2.9,1.3,4.5
		l4.8,2.8V306.9z M306.9,301.3c3.2,1.8,5.8,0.4,5.8-3.3c0-3.7-2.6-8.1-5.8-10c-3.2-1.8-5.8-0.4-5.8,3.3S303.7,299.4,306.9,301.3z"/>
	<path class="st6" d="M326.6,272.6l4.6-2.7l4.5-2.6l-4.6,2.7L326.6,272.6z"/>
	<g class="st7">
		<path class="st10" d="M347.3,287.2l4.6-2.7l0,7.3l-4.6,2.7L347.3,287.2z"/>
	</g>
	<g class="st7">
		<path class="st3" d="M323,252.4l4.6-2.7l6.3,3.7l-4.6,2.7L323,252.4z"/>
	</g>
	<path class="st2" d="M348.9,277.9l0.3-0.1l4.6-2.7c-0.1,0.1-0.2,0.1-0.3,0.1l-0.1,0l-0.2,0.1l-0.2,0.1l-0.1,0c-0.1,0-0.1,0-0.2,0.1
		h-0.1h0c-0.1,0-0.2,0-0.4,0.1h-0.1h-0.2h-0.1h-0.2h-0.2h-0.2H351l-0.2,0l-0.2,0l-0.1,0l-0.2-0.1l-0.1,0c-0.1,0-0.2,0-0.2-0.1
		c-0.1,0-0.1,0-0.1,0c-0.1,0-0.2-0.1-0.3-0.1c-0.1,0-0.2-0.1-0.3-0.2l-0.1,0l-0.2-0.1l-0.1-0.1l-0.3-0.2l-0.4-0.2h0l-0.4-0.2
		l-0.1-0.1c-0.1-0.1-0.2-0.1-0.2-0.2l-0.2-0.1l-0.2-0.2c-0.1,0-0.1-0.1-0.2-0.1l-0.2-0.2l-0.2-0.2l-0.2-0.1l-0.3-0.3
		c0,0-0.1,0-0.1-0.1c-0.1-0.1-0.3-0.3-0.4-0.4l-0.1-0.1c-0.2-0.2-0.4-0.4-0.6-0.6l-0.1-0.1c-0.2-0.2-0.4-0.5-0.5-0.7l0-0.1
		c-0.2-0.2-0.3-0.5-0.5-0.7c-0.2-0.3-0.3-0.5-0.5-0.8l0,0c-0.1-0.3-0.3-0.5-0.4-0.8l0-0.1c-0.1-0.3-0.3-0.5-0.4-0.8
		c0,0,0-0.1-0.1-0.1c-0.1-0.2-0.2-0.4-0.3-0.6c0,0,0-0.1-0.1-0.1c0-0.1-0.1-0.3-0.1-0.4c0-0.1-0.1-0.1-0.1-0.2l-0.1-0.3l-0.1-0.2
		c0-0.1-0.1-0.2-0.1-0.2c0-0.1,0-0.2-0.1-0.2l-0.1-0.2c0-0.1,0-0.2-0.1-0.3c0-0.1,0-0.1,0-0.2c0-0.1,0-0.2-0.1-0.3l0-0.2
		c0-0.1,0-0.3-0.1-0.4c0,0,0,0,0,0l-0.1-0.5v-0.1c0-0.1,0-0.2,0-0.3v-0.1c0-0.1,0-0.2,0-0.3c0-0.1,0-0.1,0-0.1c0-0.1,0-0.3,0-0.4
		c0-0.1,0-0.3,0-0.4c0,0,0-0.1,0-0.1c0-0.1,0-0.2,0-0.3c0-0.1,0-0.1,0-0.2c0-0.1,0-0.2,0-0.2c0-0.1,0-0.1,0-0.2c0-0.1,0-0.1,0-0.2
		c0-0.1,0-0.1,0-0.2c0-0.1,0-0.1,0-0.2c0-0.1,0-0.1,0.1-0.2l0-0.2c0-0.1,0.1-0.2,0.1-0.2l0-0.1c0-0.1,0.1-0.3,0.2-0.4
		c0.1-0.1,0.1-0.2,0.1-0.3c0.1-0.1,0.1-0.2,0.2-0.3c0.1-0.1,0.2-0.2,0.2-0.3l0.1-0.1c0.1-0.1,0.2-0.2,0.3-0.3l0,0
		c0.1-0.1,0.2-0.2,0.3-0.3l0.1-0.1c0.1-0.1,0.2-0.2,0.3-0.2l-4.6,2.7c-0.1,0.1-0.2,0.1-0.3,0.2c0,0-0.1,0-0.1,0.1
		c-0.1,0.1-0.2,0.2-0.3,0.3v0c-0.1,0.1-0.2,0.2-0.3,0.3l-0.1,0.1c-0.1,0.1-0.2,0.2-0.2,0.3c-0.1,0.1-0.1,0.2-0.1,0.2
		c0,0.1-0.1,0.2-0.1,0.3c-0.1,0.1-0.1,0.2-0.2,0.4v0c0,0,0,0.1,0,0.1c0,0.1-0.1,0.2-0.1,0.2c0,0,0,0,0,0.1c0,0,0,0.1,0,0.1
		c0,0.1,0,0.1-0.1,0.2c0,0,0,0.1,0,0.1c0,0,0,0.1,0,0.1l0,0.2c0,0,0,0.1,0,0.1c0,0,0,0.1,0,0.1l0,0.2v0.1c0,0,0,0.1,0,0.1
		c0,0,0,0.1,0,0.2c0,0.1,0,0,0,0.1v0.2c0,0,0,0.1,0,0.1v0c0,0.1,0,0.2,0,0.4c0,0.1,0,0.2,0,0.3c0,0,0,0,0,0.1c0,0,0,0.1,0,0.1
		s0,0.1,0,0.2v0.1c0,0,0,0.1,0,0.1c0,0,0,0.1,0,0.1l0,0.2c0,0,0,0.1,0,0.1c0,0,0,0,0,0c0,0.1,0,0.3,0.1,0.4c0,0,0,0,0,0l0.1,0.3v0
		c0,0.1,0,0.1,0,0.2c0,0.1,0,0.1,0,0.2c0,0,0,0.1,0,0.1c0,0.1,0,0.1,0,0.2l0,0.2c0,0,0,0.1,0,0.1c0,0,0,0.1,0.1,0.2
		c0,0.1,0,0.1,0,0.1l0,0.1l0.1,0.2l0,0.1l0,0.1c0,0.1,0.1,0.2,0.1,0.3c0,0.1,0,0.1,0,0.1c0,0,0,0.1,0,0.1c0,0.1,0.1,0.3,0.1,0.4
		c0,0,0,0.1,0,0.1v0c0.1,0.2,0.2,0.4,0.3,0.6l0,0c0,0,0,0,0,0.1c0.1,0.3,0.2,0.5,0.4,0.8v0l0,0.1c0.1,0.3,0.3,0.5,0.4,0.8l0,0
		c0.2,0.3,0.3,0.5,0.5,0.8c0.2,0.3,0.3,0.5,0.5,0.7l0,0.1c0.2,0.2,0.3,0.5,0.5,0.7l0,0.1l0,0c0.2,0.2,0.4,0.4,0.6,0.6l0,0.1l0,0
		l0.4,0.5c0,0,0,0,0.1,0.1c0.1,0.1,0.2,0.2,0.3,0.3l0,0l0.1,0.1l0.2,0.2l0.1,0.1l0.1,0.1l0.2,0.1l0.1,0.1l0.1,0.1l0.2,0.1l0.1,0
		l0.2,0.1l0.1,0.1h0l0.3,0.2h0l0.3,0.2l0.1,0l0.2,0.1l0.1,0l0.1,0.1l0.1,0l0.2,0.1l0.1,0.1h0l0.3,0.1l0.3,0.1h0l0.1,0l0.2,0h0.1
		l0.1,0l0.1,0l0.1,0l0.1,0h0.1h0.1l0.2,0h0.1h0.1h0.2h0.5h0.2h0.1h0.1c0.1,0,0.2,0,0.4,0h0h0.1l0.2-0.1l0.1,0l0.1,0h0l0.2-0.1
		L348.9,277.9z"/>
	<g class="st7">
		<path class="st3" d="M356.6,284.8l4.6-2.7l4.5,7.7l-4.6,2.7L356.6,284.8z"/>
	</g>
	<path class="st6" d="M326.6,244.5l4.6-2.7l5-2.9l-4.6,2.7L326.6,244.5z"/>
	<g class="st7">
		<path class="st3" d="M331.7,241.7l4.6-2.7l4.5,7.7l-4.6,2.7L331.7,241.7z"/>
	</g>
	<path class="st2" d="M362.7,278.9c0.1-0.2,0.1-0.4,0.1-0.6l-4.6,2.7c0,0.2-0.1,0.4-0.1,0.6c-0.1,0.2-0.1,0.5-0.2,0.7
		c0,0.1-0.1,0.2-0.1,0.2c0,0.1-0.1,0.1-0.1,0.2c0,0.1-0.1,0.2-0.1,0.3c0,0.1,0,0.1-0.1,0.2c0,0.1-0.1,0.1-0.1,0.2
		c0,0.1-0.1,0.2-0.2,0.3l-0.1,0.2l-0.2,0.3c0,0.1-0.1,0.2-0.2,0.2l-0.1,0.1c-0.1,0.1-0.2,0.2-0.3,0.4l4.6-2.7
		c0.1-0.1,0.2-0.2,0.3-0.4c0,0,0-0.1,0.1-0.1l0.1-0.2c0,0,0-0.1,0.1-0.1l0.2-0.3l0.1-0.2c0.1-0.1,0.1-0.2,0.2-0.3l0.1-0.1l0-0.1
		c0-0.1,0-0.1,0.1-0.2l0.1-0.3l0.1-0.2l0.1-0.2c0,0,0-0.1,0-0.1C362.6,279.4,362.7,279.1,362.7,278.9L362.7,278.9z"/>
	<path class="st2" d="M337,249.4h0.2c0.2,0,0.4,0,0.5,0h0.2c0.1,0,0.3,0,0.4,0l0.2,0l0.4,0.1l0.2,0c0.2,0,0.4,0.1,0.6,0.1l0.6,0.2
		l4.6-2.7c-0.4-0.1-0.8-0.2-1.2-0.3h0c0,0-0.1,0-0.1,0l-0.4-0.1h-0.1H343l-0.4,0h-0.1h-0.1c-0.2,0-0.4,0-0.5,0h-0.2h-0.4h-0.1H341
		l-0.3,0l-4.6,2.7l0.4,0h0.1L337,249.4z"/>
	<path class="st2" d="M357.1,268.4c0.1,0.3,0.2,0.6,0.3,0.9l0.1,0.2c0.1,0.2,0.1,0.4,0.2,0.6l0.1,0.3c0,0.2,0.1,0.4,0.1,0.5
		c0,0.1,0.1,0.2,0.1,0.3c0,0.2,0.1,0.3,0.1,0.5c0,0.1,0,0.2,0.1,0.3c0,0.2,0.1,0.3,0.1,0.5c0,0.1,0,0.2,0.1,0.3l4.6-2.7v-0.1l0-0.2
		c0-0.2-0.1-0.3-0.1-0.5v-0.1c0-0.1,0-0.1-0.1-0.2c0-0.2-0.1-0.3-0.1-0.5c0,0,0-0.1,0-0.1l0-0.2c0-0.2-0.1-0.3-0.1-0.5
		c0-0.1,0-0.1,0-0.2c0-0.1,0-0.1,0-0.1c-0.1-0.2-0.1-0.4-0.2-0.6c0-0.1,0-0.1-0.1-0.2l0-0.1c-0.1-0.3-0.2-0.6-0.3-0.9c0,0,0,0,0-0.1
		s0-0.1,0-0.1c-0.1-0.3-0.2-0.6-0.3-0.9l0-0.1c0-0.1-0.1-0.1-0.1-0.2l-4.6,2.7c0,0.1,0.1,0.2,0.1,0.3c0.1,0.3,0.2,0.6,0.3,0.9
		L357.1,268.4z"/>
	<path class="st2" d="M348.8,255.2l0.2,0.2l0.2,0.2l0.3,0.3c0.1,0.1,0.1,0.1,0.2,0.2l0.3,0.3l0.4,0.4l0.2,0.2l0.4,0.5l0.1,0.1
		l0.5,0.6l4.6-2.6c-0.2-0.2-0.3-0.4-0.5-0.6c0,0,0,0,0,0l-0.1-0.1c-0.1-0.2-0.3-0.3-0.4-0.5l-0.2-0.2l-0.4-0.4l-0.1-0.1l-0.2-0.2
		l-0.2-0.2c-0.1-0.1-0.2-0.2-0.3-0.3l-0.2-0.2c0,0,0,0-0.1-0.1l-0.1-0.1c-0.2-0.2-0.4-0.4-0.6-0.6l-0.1-0.1l-0.1,0
		c-0.2-0.2-0.4-0.4-0.6-0.6l-4.6,2.7c0.2,0.2,0.4,0.4,0.6,0.6l0.2,0.1C348.4,254.8,348.6,255,348.8,255.2z"/>
	<g class="st7">
		<path class="st3" d="M358.4,272.8l4.6-2.7l6.3,3.7l-4.6,2.7L358.4,272.8z"/>
	</g>
	<path class="st2" d="M364.7,276.5l4.6-2.7l0,8.1l-4.6,2.7L364.7,276.5z"/>
	<path class="st2" d="M340.4,242.5l4.6-2.7l7.1,4.1l-4.6,2.7L340.4,242.5z"/>
	<g class="st7">
		<path class="st10" d="M347.4,246.6l4.6-2.7l0,7.3l-4.6,2.7L347.4,246.6z"/>
	</g>
	<path class="st2" d="M356.1,255.8l4.6-2.7l5,8.6l-4.6,2.7L356.1,255.8z"/>
	<path class="st6" d="M351.6,258.4l4.6-2.7l4.5-2.6l-4.6,2.7L351.6,258.4z"/>
	<path d="M364.7,284.6l-6.3-3.7c-0.3,1.4-0.9,2.7-1.8,3.8l4.5,7.7l-5,2.9l-4.5-7.7c-1.4,0.1-2.9,0-4.2-0.4l0,7.3l-7.1-4.1l0-7.3
		c-1.5-1.3-3-2.8-4.2-4.4l-4.5,2.6l-5-8.6l4.5-2.6c-0.8-1.9-1.4-3.8-1.7-5.8l-6.3-3.7v-8.1l6.3,3.7c0.3-1.4,0.9-2.7,1.8-3.8
		l-4.4-7.8l5-2.9l4.5,7.7c1.4-0.2,2.9,0,4.2,0.4v-7.3l7.1,4.1l0,7.3c1.5,1.3,3,2.8,4.2,4.4l4.5-2.5l5,8.6l-4.5,2.6
		c0.8,1.9,1.3,3.8,1.7,5.9l6.3,3.7L364.7,284.6z M343.8,277.2c4.2,2.4,7.6,0.5,7.6-4.3c0-4.8-3.4-10.7-7.5-13.1
		c-4.2-2.4-7.6-0.5-7.6,4.3C336.3,269,339.6,274.8,343.8,277.2"/>
	<path d="M145,127.5l0,6.6c-0.3-0.1-0.6-0.2-0.9-0.3c-0.6-0.2-1.2-0.4-1.8-0.6l0-6.6c0.6,0.2,1.2,0.4,1.8,0.6
		C144.4,127.3,144.7,127.4,145,127.5z"/>
	<path d="M142.3,126.6l0,6.6l-0.5-0.1l0-6.6C141.9,126.5,142.1,126.5,142.3,126.6z"/>
	<path class="st2" d="M152.2,122.1C152.2,122.1,152.2,122.1,152.2,122.1c0,0.1,0,0.1,0,0.2l0,0.1c0,0-0.1,0.1-0.1,0.1c0,0,0,0,0,0.1
		c0,0.1-0.1,0.1-0.2,0.2l-5.6,5.3v6.6l5.6-5.3c0.1,0,0.1-0.1,0.1-0.2l0,0c0,0,0-0.1,0.1-0.1v0l0-0.1c0,0,0,0,0-0.1l0-0.1v0
		c0-0.1,0-0.1,0-0.1v0l0-6.6C152.2,122,152.2,122,152.2,122.1L152.2,122.1z"/>
	<path d="M146.2,128v6.6c-0.4-0.2-0.8-0.4-1.2-0.5l0-6.6C145.4,127.7,145.9,127.8,146.2,128"/>
	<path d="M145,127.5l0,6.6c-0.3-0.1-0.6-0.2-0.9-0.3c-0.6-0.2-1.2-0.4-1.8-0.6l0-6.6c0.6,0.2,1.2,0.4,1.8,0.6
		C144.4,127.3,144.7,127.4,145,127.5z"/>
	<path d="M151.5,120.8c0.8,0.5,1,1.3,0.4,1.9l-5.6,5.3c-0.7-0.3-1.4-0.6-2.2-0.9c-0.8-0.3-1.5-0.5-2.3-0.7l5.6-5.3
		c0.8-0.7,2.4-0.9,3.6-0.5C151.1,120.7,151.3,120.7,151.5,120.8z"/>
	<path d="M146.6,130c-0.3-0.1-0.5-0.3-0.8-0.4l-0.3-0.1l-0.6-0.3l-0.3-0.1c-0.2-0.1-0.4-0.2-0.6-0.3l-0.3-0.1l-0.1,0
		c-0.3-0.1-0.5-0.2-0.8-0.3c-0.3-0.1-0.6-0.2-0.9-0.3l-0.3-0.1c-0.2,0-0.3-0.1-0.5-0.1l-0.1,0l-0.8-0.2l-0.2-0.1
		c-0.3-0.1-0.7-0.2-1-0.2h0l-0.3-0.1l-0.6-0.1l-0.4-0.1l-0.6-0.1h-0.1l-0.4,0l-0.5-0.1l-0.5,0l-0.5,0h-0.1l-0.4,0l-0.5,0l-0.5,0
		h-0.5h-1.4c-0.2,0-0.4,0-0.6,0h-0.1c-0.1,0-0.2,0-0.3,0l-0.7,0l-0.4,0l-0.6,0.1l-0.2,0h-0.1c-0.4,0-0.8,0.1-1.2,0.1
		c-0.4,0.1-0.8,0.1-1.2,0.2l-0.1,0l-0.3,0.1l-0.5,0.1l-0.4,0.1l-0.5,0.1l-0.4,0.1l-0.5,0.1l-0.4,0.1l-0.5,0.2l-0.3,0.1l-0.1,0
		c-0.4,0.1-0.7,0.2-1.1,0.4l-0.2,0.1c-0.3,0.1-0.6,0.2-0.9,0.4L120,129c-0.3,0.2-0.7,0.3-1,0.5l-0.2,0.1c-0.3,0.1-0.5,0.3-0.8,0.5
		c0,0-0.1,0.1-0.1,0.1l-0.1,0.1c-0.1,0.1-0.2,0.1-0.4,0.2l-0.3,0.2c-0.1,0.1-0.2,0.2-0.3,0.2l-0.3,0.2l-0.3,0.2l-0.3,0.2l-0.3,0.3
		c-0.1,0.1-0.1,0.1-0.2,0.2l-0.1,0.1c-0.2,0.2-0.4,0.4-0.6,0.6l-0.1,0.1c-0.2,0.2-0.3,0.4-0.5,0.5l0,0l-0.1,0.1
		c-0.1,0.2-0.3,0.3-0.4,0.5l0,0c-0.1,0.2-0.2,0.3-0.3,0.5c0,0,0,0,0,0.1l0,0c-0.1,0.2-0.2,0.3-0.3,0.5l0,0.1
		c-0.1,0.1-0.1,0.3-0.2,0.4l0,0.1l0,0c-0.1,0.2-0.1,0.3-0.2,0.5c0,0,0,0,0,0.1c0,0.1-0.1,0.3-0.1,0.4c0,0,0,0,0,0.1c0,0,0,0,0,0.1
		c0,0.2-0.1,0.3-0.1,0.5c0,0,0,0,0,0c0,0.2,0,0.3,0,0.5c0,0,0,0,0,0.1c0,0,0,0.1,0,0.2l0,6.6c0-0.1,0-0.2,0-0.2c0-0.2,0-0.3,0-0.5v0
		c0-0.2,0-0.3,0.1-0.5c0,0,0-0.1,0-0.1c0-0.1,0.1-0.3,0.1-0.4c0,0,0,0,0-0.1c0-0.2,0.1-0.3,0.2-0.5l0-0.1c0.1-0.1,0.1-0.3,0.2-0.4
		c0,0,0-0.1,0-0.1c0.1-0.2,0.2-0.3,0.3-0.5l0.1-0.1c0.1-0.2,0.2-0.3,0.3-0.5l0,0c0.1-0.2,0.2-0.4,0.4-0.5l0.1-0.1
		c0.1-0.2,0.3-0.4,0.5-0.5c0,0,0.1-0.1,0.1-0.1c0.2-0.2,0.4-0.4,0.6-0.6l0.3-0.3c0.1-0.1,0.2-0.2,0.3-0.3l0.3-0.2l0.3-0.3
		c0.1-0.1,0.2-0.1,0.3-0.2l0.3-0.2l0.3-0.2l0.4-0.2c0.1,0,0.2-0.1,0.2-0.1c0.3-0.2,0.5-0.3,0.8-0.4c0.1,0,0.1-0.1,0.2-0.1
		c0.3-0.2,0.7-0.3,1-0.5l0.2-0.1c0.3-0.1,0.6-0.2,0.9-0.4l0.2-0.1c0.4-0.1,0.7-0.3,1.1-0.4l0.4-0.1l0.5-0.2l0.4-0.1l0.5-0.1l0.4-0.1
		c0.2,0,0.3-0.1,0.5-0.1l0.4-0.1l0.5-0.1l0.4-0.1c0.4-0.1,0.8-0.1,1.2-0.2c0.4-0.1,0.8-0.1,1.2-0.1l0.4,0l0.7-0.1l0.4,0l0.7,0h0.4
		h0.6h0.4h0.6h0.4l0.5,0l0.5,0l0.5,0l0.5,0l0.5,0l0.5,0.1c0.2,0,0.3,0,0.5,0.1l0.5,0.1l0.6,0.1l0.4,0.1l0.6,0.1l0.4,0.1
		c0.3,0.1,0.7,0.1,1,0.2l0.2,0.1l0.7,0.2l0.6,0.2l0.3,0.1c0.3,0.1,0.6,0.2,0.9,0.3c0.3,0.1,0.6,0.2,0.9,0.4l0.3,0.1l0.6,0.3l0.3,0.1
		l0.6,0.3l0.3,0.1c0.3,0.1,0.5,0.3,0.8,0.4c3.9,2.2,6,5.3,6,8.4v-6.6C152.6,135.3,150.5,132.2,146.6,130z"/>
	<path class="st11" d="M122.6,135l0,6.6l-1.1,5.9l0-6.6L122.6,135z"/>
	<path class="st12" d="M113,141.4l0,6.6l-1.8,1.2l0-6.6L113,141.4z"/>
	<path class="st13" d="M109.9,138.2v6.6c0,1.6,0.4,3.1,1.3,4.4v-6.6C110.3,141.3,109.9,139.7,109.9,138.2L109.9,138.2z"/>
	<path d="M121.6,140.9l0,6.6h-0.5v-6.6C121.2,140.9,121.4,140.9,121.6,140.9"/>
	<path d="M121.1,141v6.6c-0.5,0-0.9,0-1.4,0.1V141C120.1,141,120.6,141,121.1,141z"/>
	<path d="M119.7,141v6.6c-0.5,0.1-1.1,0.1-1.6,0.2v-6.6C118.6,141.2,119.1,141.1,119.7,141z"/>
	<path d="M118.1,141.3v6.6c-0.8,0.1-1.6,0.3-2.3,0.6v-6.6C116.5,141.6,117.3,141.4,118.1,141.3"/>
	<path d="M115.7,141.8v6.6c-1,0.3-2,0.8-2.9,1.3v-6.6C113.7,142.6,114.7,142.2,115.7,141.8"/>
	<path d="M112.8,143.2v6.6c-0.6,0.3-1.1,0.7-1.6,1.2l0-6.6C111.7,143.9,112.2,143.5,112.8,143.2"/>
	<path d="M111.2,144.3l0,6.6l-0.1,0.1c-0.3,0.2-0.5,0.5-0.7,0.8v-6.6c0.2-0.3,0.5-0.5,0.7-0.8L111.2,144.3"/>
	<path class="st13" d="M128.6,148.2l0,6.6c0-1-0.7-2-2-2.8c-0.3-0.2-0.6-0.3-1-0.5V145c0.3,0.1,0.7,0.3,1,0.5
		C127.9,146.2,128.6,147.2,128.6,148.2"/>
	<path class="st13" d="M128.6,148.2l0,6.6c0-1-0.7-2-2-2.8c-0.3-0.2-0.6-0.3-1-0.5V145c0.3,0.1,0.7,0.3,1,0.5
		C127.9,146.2,128.6,147.2,128.6,148.2"/>
	<path d="M111.2,144.3l0,6.6l-0.1,0.1c-0.3,0.2-0.5,0.5-0.7,0.8v-6.6c0.2-0.3,0.5-0.5,0.7-0.8L111.2,144.3"/>
	<path d="M110.4,145.2v6.6c-0.2,0.2-0.4,0.5-0.5,0.7v-6.6C110,145.7,110.2,145.4,110.4,145.2"/>
	<path d="M109.9,145.9v6.6c-0.1,0.2-0.2,0.5-0.3,0.7v-6.6C109.7,146.4,109.8,146.2,109.9,145.9"/>
	<path d="M109.6,146.6v6.6c-0.1,0.2-0.2,0.5-0.2,0.7v-6.6C109.4,147.1,109.5,146.9,109.6,146.6"/>
	<path d="M109.4,147.3v6.6c0,0.2-0.1,0.5-0.1,0.7l0-6.6C109.3,147.8,109.4,147.6,109.4,147.3"/>
	<path d="M109.3,148l0,6.6v0.1v-6.6C109.3,148.1,109.3,148.1,109.3,148"/>
	<path class="st13" d="M128.6,148.2l0,6.6c0-1-0.7-2-2-2.8c-0.3-0.2-0.6-0.3-1-0.5V145c0.3,0.1,0.7,0.3,1,0.5
		C127.9,146.2,128.6,147.2,128.6,148.2"/>
	<path class="st14" d="M125.6,145v6.6l-0.3-0.1c-0.2-0.1-0.4-0.1-0.5-0.2l0-6.6c0.2,0.1,0.4,0.1,0.5,0.2L125.6,145"/>
	<path class="st15" d="M124.8,144.7l0,6.6c-0.2-0.1-0.5-0.1-0.7-0.2v-6.6C124.3,144.6,124.5,144.6,124.8,144.7"/>
	<path class="st16" d="M124.1,144.5v6.6c-0.2,0-0.4-0.1-0.7-0.1l0-6.6C123.6,144.4,123.9,144.5,124.1,144.5"/>
	<path class="st17" d="M123.4,144.4l0,6.6c-0.2,0-0.4-0.1-0.6-0.1v-6.6L123.4,144.4"/>
	<path class="st18" d="M122.8,144.3v6.6c-0.2,0-0.4,0-0.7,0l0-6.6C122.3,144.3,122.6,144.3,122.8,144.3"/>
	<path class="st19" d="M122.1,144.3l0,6.6c-0.2,0-0.5,0-0.7,0l0-6.6C121.6,144.3,121.9,144.3,122.1,144.3z"/>
	<path class="st20" d="M121.4,144.3l0,6.6c-0.2,0-0.5,0-0.7,0l0-6.6C120.9,144.3,121.2,144.3,121.4,144.3z"/>
	<path class="st21" d="M120.7,144.3l0,6.6c-0.3,0-0.6,0.1-0.9,0.1v-6.6C120.1,144.4,120.4,144.4,120.7,144.3"/>
	<path class="st22" d="M119.8,144.5v6.6c-0.4,0.1-0.9,0.2-1.3,0.3v-6.6C118.9,144.7,119.4,144.5,119.8,144.5"/>
	<path class="st23" d="M118.5,144.8v6.6c-0.5,0.2-1.1,0.4-1.5,0.7l0-6.6C117.5,145.2,118,145,118.5,144.8"/>
	<path class="st22" d="M117,145.5l0,6.6c-0.3,0.2-0.6,0.4-0.9,0.6v-6.6C116.4,145.9,116.6,145.7,117,145.5"/>
	<path class="st21" d="M116.1,146.1v6.6l0,0c-0.1,0.1-0.3,0.3-0.4,0.4v-6.6C115.8,146.4,115.9,146.3,116.1,146.1L116.1,146.1"/>
	<path class="st20" d="M115.7,146.6v6.6c-0.1,0.1-0.2,0.3-0.3,0.4l0-6.6C115.5,146.8,115.6,146.7,115.7,146.6"/>
	<path class="st19" d="M115.4,147l0,6.6c-0.1,0.1-0.1,0.3-0.2,0.4v-6.6C115.3,147.2,115.3,147.1,115.4,147"/>
	<path class="st18" d="M115.2,147.4v6.6c0,0.1-0.1,0.2-0.1,0.4l0-6.6C115.2,147.6,115.2,147.5,115.2,147.4"/>
	<path class="st17" d="M115.1,147.7l0,6.6c0,0.1,0,0.3,0,0.4l0-6.6C115.1,148,115.1,147.9,115.1,147.7"/>
	<path class="st16" d="M115.1,148.1l0,6.6v0.1L115.1,148.1L115.1,148.1z"/>
	<path class="st13" d="M128.6,148.2l0,6.6c0-1-0.7-2-2-2.8c-0.3-0.2-0.6-0.3-1-0.5V145c0.3,0.1,0.7,0.3,1,0.5
		C127.9,146.2,128.6,147.2,128.6,148.2"/>
	<path d="M134.3,148.2l0,6.6c0-1.2-0.5-2.3-1.3-3.2V145C133.8,145.9,134.3,147,134.3,148.2"/>
	<path class="st11" d="M141.6,141.8l0,6.6l-5.4,8l0-6.6L141.6,141.8z"/>
	<path d="M154.9,138.6c0,0.2,0,0.4,0,0.5c0,0,0,0,0,0c0,0.2-0.1,0.4-0.1,0.6c0,0,0,0.1,0,0.1c0,0.2-0.1,0.3-0.1,0.5l0,0.1
		c-0.1,0.2-0.1,0.4-0.2,0.6l-0.1,0.1c-0.1,0.2-0.1,0.3-0.2,0.5l0,0.1c-0.1,0.2-0.2,0.4-0.3,0.6l-0.1,0.1c-0.1,0.2-0.2,0.4-0.4,0.6
		l0,0c-0.1,0.2-0.3,0.4-0.4,0.6l-0.1,0.1c-0.2,0.2-0.3,0.4-0.5,0.6c0,0-0.1,0.1-0.1,0.1c-0.2,0.2-0.4,0.4-0.6,0.6
		c-0.2,0.2-0.4,0.3-0.6,0.5l-0.2,0.2c-0.2,0.2-0.5,0.4-0.7,0.6l-0.1,0.1c-0.2,0.2-0.4,0.3-0.7,0.5l-0.3,0.2l-0.5,0.3
		c-0.4,0.2-0.7,0.4-1.1,0.6l-0.1,0.1c-0.3,0.2-0.7,0.3-1,0.5l-0.4,0.2c-0.3,0.1-0.6,0.2-0.9,0.4l-0.4,0.1c-0.4,0.2-0.8,0.3-1.3,0.4
		c-0.4,0.1-0.7,0.2-1.1,0.3l-0.3,0.1c-0.3,0.1-0.5,0.1-0.8,0.2c-0.1,0-0.3,0.1-0.4,0.1c-0.2,0.1-0.5,0.1-0.7,0.2l-0.5,0.1
		c-0.2,0-0.4,0.1-0.6,0.1c-0.4,0.1-0.8,0.1-1.2,0.2l-0.2,0c-0.4,0.1-0.9,0.1-1.3,0.2c-0.4,0-0.7,0.1-1.1,0.1l0,6.6l1-0.1h0.1
		c0.5,0,0.9-0.1,1.4-0.2l0.2,0c0.4-0.1,0.8-0.1,1.2-0.2l0.1,0l0.5-0.1c0.2,0,0.3-0.1,0.5-0.1l0.7-0.2l0.4-0.1
		c0.3-0.1,0.6-0.1,0.8-0.2l0.3-0.1c0.4-0.1,0.7-0.2,1-0.3c0.4-0.1,0.9-0.3,1.3-0.4l0.4-0.1c0.3-0.1,0.6-0.2,0.9-0.4l0.4-0.2
		c0.3-0.2,0.7-0.3,1-0.5l0.2-0.1c0.4-0.2,0.7-0.4,1.1-0.6l0.1-0.1c0.1-0.1,0.3-0.2,0.4-0.3l0.3-0.2c0.2-0.1,0.4-0.3,0.7-0.5l0.1-0.1
		c0.3-0.2,0.5-0.4,0.7-0.6c0.1-0.1,0.1-0.1,0.2-0.2c0.1-0.1,0.3-0.2,0.4-0.4c0.1,0,0.1-0.1,0.1-0.1c0.2-0.2,0.4-0.4,0.6-0.6l0.1-0.1
		c0.2-0.2,0.4-0.4,0.5-0.6l0-0.1l0-0.1c0.2-0.2,0.3-0.4,0.4-0.6l0-0.1c0.1-0.2,0.2-0.4,0.4-0.6c0,0,0,0,0-0.1c0,0,0,0,0-0.1
		c0.1-0.2,0.2-0.4,0.3-0.6c0,0,0-0.1,0-0.1c0.1-0.2,0.1-0.3,0.2-0.5l0-0.1c0,0,0,0,0-0.1c0.1-0.2,0.1-0.4,0.2-0.6c0,0,0-0.1,0-0.1
		c0-0.2,0.1-0.3,0.1-0.5c0,0,0-0.1,0-0.1v-0.1c0-0.2,0.1-0.4,0.1-0.6c0,0,0,0,0,0c0-0.2,0-0.4,0-0.5c0,0,0-0.1,0-0.1v-0.2l0-6.6
		C154.9,138.4,154.9,138.5,154.9,138.6z"/>
	<path class="st16" d="M134.3,148.2l0,6.6v0.1v-6.6C134.3,148.3,134.3,148.3,134.3,148.2"/>
	<path class="st17" d="M134.3,148.3v6.6c0,0.2,0,0.5-0.1,0.7l0-6.6C134.3,148.8,134.4,148.6,134.3,148.3"/>
	<path class="st18" d="M134.3,149.1l0,6.6c0,0.2-0.1,0.5-0.2,0.7v-6.6C134.1,149.5,134.2,149.3,134.3,149.1"/>
	<path class="st19" d="M134,149.8v6.6c-0.1,0.2-0.2,0.5-0.3,0.7l0-6.6C133.9,150.2,134,150,134,149.8"/>
	<path class="st20" d="M133.7,150.5l0,6.6c-0.1,0.3-0.3,0.5-0.5,0.7l0-6.6C133.4,151,133.6,150.7,133.7,150.5"/>
	<path class="st21" d="M133.2,151.2l0,6.6c-0.2,0.3-0.5,0.5-0.7,0.8V152C132.8,151.7,133,151.5,133.2,151.2"/>
	<path d="M128.6,148.2l0,6.6v0.1L128.6,148.2L128.6,148.2"/>
	<path d="M128.6,148.3l0,6.6c0,0.1,0,0.3,0,0.4v-6.6C128.5,148.6,128.5,148.4,128.6,148.3"/>
	<path d="M128.5,148.7v6.6c0,0.1-0.1,0.3-0.1,0.4l0-6.6C128.5,148.9,128.5,148.8,128.5,148.7"/>
	<path d="M128.4,149v6.5c0,0.1-0.1,0.3-0.2,0.4l0-6.6C128.3,149.3,128.4,149.2,128.4,149"/>
	<path d="M128.2,149.4l0,6.6c-0.1,0.1-0.2,0.3-0.3,0.4v-6.6C128.1,149.7,128.1,149.6,128.2,149.4"/>
	<path d="M128,149.8v6.6c-0.1,0.1-0.3,0.3-0.4,0.4l0,0v-6.6l0,0C127.7,150.1,127.8,150,128,149.8"/>
	<path d="M127.5,150.3v6.6c-0.3,0.2-0.6,0.5-0.9,0.6v-6.6C127,150.7,127.3,150.5,127.5,150.3"/>
	<path d="M126.7,150.9v6.6c-0.5,0.3-1,0.5-1.5,0.7v-6.6C125.7,151.4,126.2,151.2,126.7,150.9z"/>
	<path d="M125.1,151.6v6.6c-0.4,0.1-0.9,0.2-1.3,0.3l0-6.6C124.3,151.8,124.7,151.7,125.1,151.6"/>
	<path d="M123.9,151.9l0,6.6c-0.3,0.1-0.6,0.1-0.9,0.1l0-6.6C123.3,152,123.6,152,123.9,151.9"/>
	<path d="M123,152l0,6.6c-0.2,0-0.5,0-0.7,0.1l0-6.6C122.5,152.1,122.7,152.1,123,152z"/>
	<path d="M122.2,152.1l0,6.6c-0.2,0-0.5,0-0.7,0l0-6.6C121.8,152.1,122,152.1,122.2,152.1z"/>
	<path d="M121.6,152.1l0,6.6c-0.2,0-0.4,0-0.7,0l0-6.6C121.1,152.1,121.3,152.1,121.6,152.1"/>
	<path d="M120.9,152.1l0,6.6c-0.2,0-0.4,0-0.7-0.1l0-6.6C120.5,152,120.7,152,120.9,152.1z"/>
	<path d="M120.2,152l0,6.6c-0.2,0-0.4-0.1-0.7-0.1v-6.6C119.8,151.9,120,152,120.2,152"/>
	<path d="M119.6,151.9v6.6c-0.2,0-0.5-0.1-0.7-0.2v-6.6C119.1,151.8,119.3,151.8,119.6,151.9"/>
	<path d="M118.9,151.7v6.6c-0.2-0.1-0.4-0.1-0.5-0.2L118,158v-6.6l0.3,0.1C118.5,151.6,118.7,151.6,118.9,151.7"/>
	<path d="M118,151.4v6.6c-0.3-0.1-0.7-0.3-1-0.5c-1.3-0.7-2-1.8-2-2.8l0-6.6c0,1,0.7,2,2,2.8C117.4,151.1,117.7,151.3,118,151.4"/>
	<path d="M109.3,154.7v-6.6c0,1.8,1.1,3.5,3.1,4.8c0.2,0.1,0.4,0.2,0.6,0.4c0.7,0.4,1.5,0.8,2.3,1.1c1.1,0.4,2.3,0.7,3.5,0.9
		c5.2,0.7,10.8-0.5,13.7-3.3v6.6c-2.9,2.8-8.5,4-13.7,3.2c-1.2-0.2-2.3-0.5-3.5-0.9c-0.8-0.3-1.6-0.6-2.3-1.1
		c-0.2-0.1-0.4-0.2-0.6-0.4C110.4,158.2,109.3,156.5,109.3,154.7z"/>
	<path d="M132.5,152v6.6l-0.1,0.1L132.5,152L132.5,152"/>
	<path d="M132.4,152.1l0,6.6c-0.5,0.4-1,0.8-1.6,1.2l0-6.6C131.4,152.9,131.9,152.5,132.4,152.1"/>
	<path d="M130.9,153.2l0,6.6c-0.9,0.5-1.9,1-2.9,1.3l0-6.6C128.9,154.2,129.9,153.8,130.9,153.2"/>
	<path d="M127.9,154.5l0,6.6c-0.8,0.2-1.5,0.4-2.3,0.6l0-6.6C126.4,155,127.2,154.8,127.9,154.5"/>
	<path d="M125.6,155.1l0,6.6c-0.5,0.1-1.1,0.2-1.6,0.2l0-6.6C124.5,155.3,125.1,155.2,125.6,155.1"/>
	<path d="M124,155.3l0,6.6c-0.5,0-0.9,0.1-1.4,0.1v-6.6C123,155.4,123.5,155.4,124,155.3"/>
	<path d="M122.6,155.4v6.6c-0.4,0-0.8,0-1.3,0l0-6.6C121.8,155.4,122.2,155.4,122.6,155.4"/>
	<path d="M121.3,155.4l0,6.6c-0.4,0-0.8,0-1.2-0.1v-6.6C120.5,155.4,120.9,155.4,121.3,155.4"/>
	<path d="M120.1,155.4v6.6c-0.4,0-0.8-0.1-1.2-0.1v-6.6C119.3,155.3,119.7,155.3,120.1,155.4"/>
	<path d="M118.9,155.2v6.6h-0.1c-0.4-0.1-0.8-0.1-1.1-0.2V155C118,155.1,118.4,155.2,118.9,155.2L118.9,155.2"/>
	<path d="M117.7,155v6.6c-0.4-0.1-0.9-0.2-1.3-0.3v-6.6C116.8,154.8,117.2,154.9,117.7,155"/>
	<path d="M116.3,154.7v6.6c-0.3-0.1-0.7-0.2-1-0.3l-0.5-0.2v-6.6c0.2,0.1,0.3,0.1,0.5,0.2C115.7,154.5,116,154.6,116.3,154.7"/>
	<path d="M114.8,154.2v6.6c-0.6-0.2-1.2-0.5-1.8-0.9c-0.2-0.1-0.4-0.2-0.6-0.4c-2-1.3-3.1-3.1-3.1-4.8v-6.6c0,1.8,1.1,3.5,3.1,4.8
		c0.2,0.1,0.4,0.2,0.6,0.4C113.6,153.7,114.2,153.9,114.8,154.2"/>
	<path class="st2" d="M112.4,153l0,6.6l-22.3,16l0-6.6L112.4,153z"/>
	<path d="M113.7,177.2v6.6c0-0.5-0.4-1-1-1.4c-0.2-0.1-0.3-0.2-0.5-0.2l0-6.6c0.2,0.1,0.3,0.1,0.5,0.2
		C113.4,176.1,113.7,176.7,113.7,177.2"/>
	<path d="M112.2,175.5l0,6.6L112,182l-0.3-0.1v-6.6l0.3,0.1L112.2,175.5"/>
	<path d="M111.8,175.4v6.6c-0.1,0-0.2-0.1-0.4-0.1l0-6.6C111.5,175.3,111.6,175.3,111.8,175.4"/>
	<path d="M111.4,175.3l0,6.6c-0.1,0-0.2,0-0.3-0.1v-6.6C111.1,175.2,111.3,175.3,111.4,175.3"/>
	<path d="M111,175.2v6.6l-0.3,0v-6.6L111,175.2"/>
	<path d="M110.7,175.2v6.6c-0.1,0-0.2,0-0.3,0l0-6.6L110.7,175.2"/>
	<path d="M110.4,175.2l0,6.6H110l0-6.6L110.4,175.2"/>
	<path d="M110,175.2l0,6.6c-0.1,0-0.3,0-0.4,0v-6.6C109.7,175.2,109.9,175.2,110,175.2"/>
	<path d="M109.6,175.2v6.6c-0.2,0-0.3,0-0.4,0.1v-6.6C109.3,175.2,109.5,175.2,109.6,175.2"/>
	<path d="M109.2,175.2v6.6c-0.2,0-0.4,0.1-0.7,0.2v-6.6C108.7,175.3,109,175.3,109.2,175.2"/>
	<path d="M108.5,175.4v6.6c-0.3,0.1-0.6,0.2-0.8,0.4v-6.6C108,175.6,108.2,175.5,108.5,175.4"/>
	<path d="M107.7,175.8v6.6c-0.2,0.1-0.3,0.2-0.4,0.3v-6.6C107.4,176,107.6,175.9,107.7,175.8"/>
	<path d="M107.3,176.1v6.6l0,0c-0.1,0.1-0.1,0.1-0.2,0.2v-6.6C107.1,176.3,107.2,176.2,107.3,176.1L107.3,176.1"/>
	<path d="M107.1,176.3v6.6c-0.1,0.1-0.1,0.1-0.1,0.2l0-6.6C107,176.5,107,176.4,107.1,176.3"/>
	<path d="M106.9,176.5l0,6.6c0,0.1-0.1,0.1-0.1,0.2l0-6.6C106.9,176.7,106.9,176.6,106.9,176.5"/>
	<path d="M106.8,176.7l0,6.6c0,0.1,0,0.1-0.1,0.2l0-6.6C106.8,176.9,106.8,176.8,106.8,176.7"/>
	<path class="st16" d="M113.7,177.2v6.6c0,0,0,0,0,0V177.2L113.7,177.2"/>
	<path class="st17" d="M113.7,177.2l0,6.6c0,0.1,0,0.1,0,0.2v-6.6C113.7,177.3,113.7,177.3,113.7,177.2"/>
	<path class="st18" d="M113.7,177.4v6.6c0,0.1,0,0.1-0.1,0.2l0-6.6C113.7,177.5,113.7,177.5,113.7,177.4"/>
	<path class="st19" d="M113.6,177.6l0,6.6c0,0.1-0.1,0.1-0.1,0.2v-6.6C113.5,177.7,113.6,177.7,113.6,177.6"/>
	<path class="st20" d="M113.5,177.8v6.6c0,0.1-0.1,0.1-0.1,0.2l0-6.6C113.5,177.9,113.5,177.9,113.5,177.8"/>
	<path class="st21" d="M113.4,178l0,6.6c-0.1,0.1-0.1,0.1-0.2,0.2l0,0l0-6.6h0C113.3,178.2,113.3,178.1,113.4,178"/>
	<path class="st22" d="M113.2,178.2l0,6.6c-0.1,0.1-0.3,0.2-0.4,0.3v-6.6C112.9,178.5,113,178.4,113.2,178.2"/>
	<path class="st23" d="M112.7,178.6v6.6c-0.3,0.1-0.5,0.3-0.8,0.4l0-6.6C112.2,178.8,112.5,178.7,112.7,178.6"/>
	<path class="st22" d="M111.9,178.9l0,6.6c-0.2,0.1-0.4,0.1-0.7,0.2l0-6.6C111.5,179,111.7,179,111.9,178.9z"/>
	<path class="st21" d="M111.3,179.1l0,6.6c-0.1,0-0.3,0-0.4,0.1l0-6.6C111,179.1,111.1,179.1,111.3,179.1z"/>
	<path class="st20" d="M110.8,179.1l0,6.6c-0.1,0-0.3,0-0.4,0v-6.6L110.8,179.1"/>
	<path class="st19" d="M110.4,179.2v6.6h-0.4v-6.6H110.4z"/>
	<path class="st18" d="M110.1,179.2v6.6c-0.1,0-0.2,0-0.3,0v-6.6H110.1z"/>
	<path class="st17" d="M109.7,179.2v6.6c-0.1,0-0.2,0-0.3,0v-6.6L109.7,179.2z"/>
	<path class="st16" d="M109.4,179.1v6.6c-0.1,0-0.2,0-0.3-0.1l0-6.6L109.4,179.1"/>
	<path class="st15" d="M109.1,179.1l0,6.6l-0.4-0.1V179C108.8,179,109,179,109.1,179.1"/>
	<path class="st14" d="M108.7,179v6.6l-0.3-0.1l-0.1-0.1l0-6.6l0.1,0.1C108.5,178.9,108.6,178.9,108.7,179"/>
	<path class="st13" d="M108.3,178.8l0,6.6c-0.2-0.1-0.3-0.1-0.5-0.2c-0.7-0.4-1-0.9-1-1.4v-6.6c0,0.5,0.4,1,1,1.4
		C107.9,178.7,108.1,178.8,108.3,178.8"/>
	<path class="st11" d="M148.3,129c7.2,4.2,8.9,10.8,3.4,16c-3.7,3.5-9.8,5.6-16.4,6.1l1-1.4c5.4-0.6,10.4-2.5,13.5-5.4
		c5-4.7,3.5-10.7-3-14.4c-1.2-0.7-2.4-1.2-3.7-1.7c-9.5-3.4-22-1.6-27.8,3.9c-3,2.9-3.6,6.2-2.2,9.3l-1.8,1.2
		c-2.2-3.6-1.7-7.6,2-11.1c6-5.7,18.4-7.8,28.6-5c0.8,0.2,1.6,0.4,2.3,0.7c0.8,0.3,1.5,0.6,2.2,0.9
		C146.9,128.3,147.6,128.7,148.3,129z"/>
	<path d="M126.6,145.4c2.2,1.2,2.7,3.2,1,4.8c-1.9,1.8-6.1,2.4-9.3,1.3c-0.4-0.1-0.9-0.3-1.3-0.6c-2.2-1.3-2.7-3.2-1-4.8
		c1.9-1.8,6.1-2.4,9.3-1.3C125.8,145,126.2,145.2,126.6,145.4L126.6,145.4z"/>
	<path class="st9" d="M132.5,152c-2.9,2.8-8.5,4-13.7,3.2c-1.2-0.2-2.4-0.5-3.5-0.8c-0.8-0.3-1.6-0.6-2.3-1.1
		c-0.2-0.1-0.4-0.2-0.6-0.4c-3.5-2.3-4.2-5.8-1.3-8.6c2.3-2.2,6.3-3.4,10.4-3.5c2.3,0,4.6,0.3,6.8,1.1c0.8,0.3,1.6,0.6,2.3,1.1
		c0.9,0.5,1.7,1.2,2.4,1.9C134.9,147.2,134.8,149.8,132.5,152z M118.3,151.5c3.2,1.1,7.3,0.6,9.3-1.3c1.7-1.6,1.2-3.6-1-4.8
		c-0.4-0.2-0.8-0.4-1.3-0.6c-3.2-1.1-7.3-0.6-9.3,1.3c-1.7,1.6-1.2,3.6,1,4.8C117.5,151.2,117.9,151.4,118.3,151.5"/>
	<path d="M68.5,161.2c0,0,0,0.1,0,0.1c0,0.1,0,0.1,0,0.2c0,0,0,0.1,0,0.1c0,0.1,0,0.1-0.1,0.2l0,0.1c0,0.1-0.1,0.1-0.1,0.2
		c0,0,0,0,0,0c-0.1,0.1-0.1,0.1-0.2,0.2c-0.1,0.1-0.2,0.1-0.2,0.2l-0.1,0c-0.1,0-0.1,0.1-0.2,0.1c-0.1,0-0.1,0.1-0.2,0.1l-0.1,0.1
		c-0.1,0.1-0.2,0.1-0.4,0.1l-0.2,0.1c-0.2,0.1-0.3,0.1-0.5,0.1l-0.1,0l-0.2,0l-0.2,0h-0.1h-0.3H65h-0.4h-0.1c-0.1,0-0.3,0-0.4,0
		l-0.1,0l-0.3-0.1l-0.1,0l-0.4-0.1l-0.3-0.1l-0.1,0c-0.1,0-0.2-0.1-0.3-0.1c-0.2-0.1-0.5-0.3-0.6-0.5c-0.2-0.2-0.3-0.5-0.4-0.7
		c0-0.1,0-0.1,0-0.2v6.6c0,0.5,0.4,1.1,1,1.4c0.1,0.1,0.2,0.1,0.3,0.1l0.1,0l0.1,0.1l0.1,0.1c0.1,0,0.2,0.1,0.3,0.1l0.1,0l0.1,0
		l0.1,0l0.2,0h0.1h0.1l0.3,0h0.1c0.1,0,0.2,0,0.2,0h0.3h0.2h0.1h0.1c0.1,0,0.1,0,0.2,0l0.2,0h0l0.1,0c0.2,0,0.3-0.1,0.5-0.1h0.1
		l0.1,0c0.1,0,0.2-0.1,0.4-0.1l0.1-0.1c0.1,0,0.1-0.1,0.2-0.1h0c0.1,0,0.1-0.1,0.2-0.1c0,0,0,0,0.1,0c0.1-0.1,0.1-0.1,0.2-0.2l0,0
		c0.1-0.1,0.1-0.1,0.2-0.2l0,0c0,0,0,0,0,0c0-0.1,0.1-0.1,0.1-0.2l0,0c0,0,0,0,0-0.1c0,0,0-0.1,0.1-0.1c0,0,0,0,0,0c0,0,0-0.1,0-0.2
		l0-0.1c0,0,0-0.1,0-0.1c0,0,0-0.1,0-0.1v0L68.5,161.2z"/>
	<path class="st9" d="M67.5,159.7c0.7,0.4,1.1,1,1,1.6c-0.1,0.4-0.2,0.7-0.5,0.9c-0.3,0.3-0.7,0.5-1.2,0.7c-1.2,0.4-2.4,0.4-3.6,0
		c-0.2-0.1-0.4-0.2-0.6-0.3c-1.1-0.6-1.4-1.7-0.5-2.5c1-0.9,3.1-1.2,4.8-0.7C67.1,159.5,67.3,159.6,67.5,159.7L67.5,159.7z"/>
	<path d="M75.7,166l0,6.6l-8.9-3.1l0-6.6L75.7,166z"/>
	<path d="M76.6,166.3l0,6.6l-0.8-0.3l0-6.6L76.6,166.3z"/>
	<path d="M78.2,164.7l-1.7,1.6l-0.8-0.3l-8.9-3.1c0.4-0.1,0.8-0.4,1.2-0.7c0.3-0.2,0.4-0.6,0.5-0.9l9.3,3.3L78.2,164.7z"/>
	<path d="M78.2,164.7l0,6.6l-1.7,1.6l0-6.6L78.2,164.7z"/>
	<path d="M86.6,167.6v6.6c0-0.5-0.4-1.1-1-1.4c-0.2-0.1-0.3-0.2-0.5-0.2v-6.6c0.2,0.1,0.3,0.1,0.5,0.2
		C86.3,166.6,86.6,167.1,86.6,167.6"/>
	<path d="M85.1,165.9v6.6l-0.1-0.1l-0.3-0.1l0-6.6l0.3,0.1L85.1,165.9"/>
	<path d="M84.7,165.8l0,6.6c-0.1,0-0.2-0.1-0.4-0.1v-6.6C84.4,165.7,84.5,165.7,84.7,165.8"/>
	<path d="M84.3,165.7v6.6c-0.1,0-0.2,0-0.3-0.1v-6.6C84.1,165.6,84.2,165.7,84.3,165.7z"/>
	<path d="M84,165.6v6.6c-0.1,0-0.2,0-0.3,0l0-6.6C83.8,165.6,83.9,165.6,84,165.6"/>
	<path d="M83.6,165.6l0,6.6h-0.3v-6.6C83.4,165.6,83.5,165.6,83.6,165.6"/>
	<path d="M83.3,165.6v6.6h-0.4v-6.6C83,165.6,83.2,165.6,83.3,165.6z"/>
	<path d="M82.9,165.6v6.6c-0.1,0-0.3,0-0.4,0v-6.6C82.7,165.6,82.8,165.6,82.9,165.6z"/>
	<path d="M82.5,165.6v6.6c-0.2,0-0.3,0-0.5,0.1v-6.6C82.2,165.6,82.4,165.6,82.5,165.6"/>
	<path d="M82.1,165.6v6.6c-0.2,0-0.4,0.1-0.7,0.2l0-6.6C81.7,165.7,81.9,165.7,82.1,165.6"/>
	<path d="M81.4,165.8l0,6.6c-0.3,0.1-0.6,0.2-0.8,0.4v-6.6C80.9,166,81.1,165.9,81.4,165.8"/>
	<path d="M80.6,166.2v6.6c-0.2,0.1-0.3,0.2-0.4,0.3l0-6.6C80.4,166.4,80.5,166.3,80.6,166.2"/>
	<path d="M80.2,166.5l0,6.6l0,0c-0.1,0.1-0.1,0.1-0.2,0.2v-6.6C80,166.7,80.1,166.6,80.2,166.5L80.2,166.5"/>
	<path d="M80,166.7v6.6c-0.1,0.1-0.1,0.1-0.1,0.2l0-6.6C79.9,166.9,79.9,166.8,80,166.7"/>
	<path d="M79.8,166.9l0,6.6c0,0.1-0.1,0.1-0.1,0.2v-6.6C79.8,167.1,79.8,167,79.8,166.9"/>
	<path d="M79.7,167.1v6.6c0,0.1,0,0.1-0.1,0.2v-6.6C79.7,167.3,79.7,167.2,79.7,167.1"/>
	<path d="M79.7,167.3v6.6c0,0.1,0,0.1,0,0.2v-6.6C79.7,167.5,79.7,167.4,79.7,167.3"/>
	<path class="st17" d="M86.6,167.6v6.6c0,0.1,0,0.1,0,0.2l0-6.6C86.6,167.7,86.6,167.7,86.6,167.6"/>
	<path class="st18" d="M86.6,167.8l0,6.6c0,0.1,0,0.1-0.1,0.2l0-6.6C86.6,167.9,86.6,167.9,86.6,167.8"/>
	<path class="st19" d="M86.5,168l0,6.6c0,0.1-0.1,0.1-0.1,0.2l0-6.6C86.5,168.1,86.5,168.1,86.5,168"/>
	<path class="st20" d="M86.4,168.2l0,6.6c0,0.1-0.1,0.1-0.1,0.2v-6.6C86.3,168.3,86.4,168.3,86.4,168.2"/>
	<path class="st21" d="M86.3,168.4v6.6c-0.1,0.1-0.1,0.1-0.2,0.2h0l0-6.6v0C86.2,168.5,86.2,168.5,86.3,168.4"/>
	<path class="st22" d="M86.1,168.6l0,6.6c-0.1,0.1-0.3,0.2-0.4,0.3V169C85.8,168.9,85.9,168.8,86.1,168.6"/>
	<path class="st23" d="M85.6,169v6.6c-0.3,0.1-0.5,0.3-0.8,0.4l0-6.6C85.1,169.2,85.4,169.1,85.6,169"/>
	<path class="st22" d="M84.8,169.3l0,6.6c-0.2,0.1-0.4,0.1-0.7,0.2v-6.6C84.4,169.4,84.6,169.4,84.8,169.3"/>
	<path class="st21" d="M84.2,169.5v6.6c-0.1,0-0.3,0-0.4,0.1v-6.6C83.9,169.5,84,169.5,84.2,169.5"/>
	<path class="st20" d="M83.7,169.5v6.6l-0.4,0v-6.6C83.5,169.6,83.6,169.6,83.7,169.5"/>
	<path class="st19" d="M83.3,169.6v6.6H83v-6.6L83.3,169.6"/>
	<path class="st18" d="M83,169.6v6.6l-0.3,0v-6.6C82.8,169.6,82.9,169.6,83,169.6"/>
	<path class="st17" d="M82.7,169.6v6.6c-0.1,0-0.2,0-0.3,0v-6.6L82.7,169.6z"/>
	<path class="st16" d="M82.3,169.5v6.6c-0.1,0-0.2,0-0.3-0.1v-6.6C82.1,169.5,82.2,169.5,82.3,169.5z"/>
	<path class="st15" d="M82,169.5v6.6c-0.1,0-0.2-0.1-0.4-0.1l0-6.6L82,169.5"/>
	<path class="st14" d="M81.6,169.4l0,6.6c-0.1,0-0.2-0.1-0.3-0.1l-0.1-0.1v-6.6l0.1,0.1L81.6,169.4"/>
	<path class="st13" d="M81.2,169.2v6.6c-0.2-0.1-0.3-0.1-0.5-0.2c-0.7-0.4-1-0.9-1-1.4v-6.6c0,0.5,0.4,1,1,1.4
		C80.8,169.1,81,169.2,81.2,169.2"/>
	<path d="M103.2,175.8l0,6.6L88.1,177l0-6.6L103.2,175.8z"/>
	<path d="M106.8,176.7l0,6.6c0,0.1,0,0.1-0.1,0.2l0-6.6C106.8,176.9,106.8,176.8,106.8,176.7"/>
	<path d="M106.8,176.9l0,6.6c0,0.1,0,0.1,0,0.2v-6.6C106.7,177,106.8,177,106.8,176.9"/>
	<path d="M83.8,221.8c-13.2,10.5-23,10.2-23.7,10.6l43.1-56.6l-15.1-5.3l-67,48.1c0.2-0.5,3.9-10.5,14-22.1
		c4.6-5.3,10.4-10.3,17.2-14.8L75.7,166l0.8,0.3l1.7-1.6l33-22.2l1.8-1.2l9.7-6.4l-1.1,5.9c-4.1,0-8.1,1.3-10.4,3.5
		c-2.9,2.8-2.2,6.2,1.3,8.6l-22.3,16l14.3,5.1l14.3-18.8c5.2,0.8,10.8-0.5,13.7-3.2c2.3-2.2,2.4-4.8,0.5-7l8.6-3.3l-5.4,8l-1,1.4
		l-32.1,49.6C99.4,206.3,89.9,217,83.8,221.8z M108.4,178.9c1.6,0.6,3.8,0.3,4.8-0.7c0.8-0.8,0.6-1.8-0.5-2.5
		c-0.2-0.1-0.4-0.2-0.6-0.3c-1.6-0.6-3.8-0.3-4.8,0.7c-0.9,0.8-0.6,1.8,0.5,2.5C108,178.7,108.2,178.8,108.4,178.9z M81.3,169.3
		c1.6,0.6,3.8,0.3,4.8-0.7c0.8-0.8,0.6-1.8-0.5-2.5c-0.2-0.1-0.4-0.2-0.6-0.3c-1.6-0.6-3.8-0.3-4.8,0.7c-0.8,0.8-0.6,1.8,0.5,2.5
		C80.9,169.1,81.1,169.2,81.3,169.3z"/>
	<path class="st9" d="M85.6,166.2c1.1,0.6,1.4,1.7,0.5,2.5c-1,0.9-3.1,1.2-4.8,0.7c-0.2-0.1-0.4-0.2-0.6-0.3
		c-1.1-0.6-1.4-1.7-0.5-2.5c1-0.9,3.1-1.2,4.8-0.7C85.2,165.9,85.4,166,85.6,166.2L85.6,166.2z"/>
	<path class="st9" d="M112.7,175.7c1.1,0.6,1.4,1.7,0.5,2.5c-1,0.9-3.1,1.2-4.8,0.7c-0.2-0.1-0.4-0.2-0.6-0.3
		c-1.1-0.6-1.4-1.7-0.5-2.5c1-0.9,3.1-1.2,4.8-0.7C112.3,175.5,112.5,175.6,112.7,175.7L112.7,175.7z"/>
	<path class="st2" d="M88.1,170.4l0,6.6L21,225.1l0-6.6L88.1,170.4z"/>
	<path d="M102.5,199.4c-0.4,0.5-0.7,1-1.1,1.6c-0.1,0.1-0.1,0.2-0.2,0.3c-0.4,0.5-0.7,1-1.1,1.5l-0.3,0.4c-0.1,0.2-0.3,0.4-0.4,0.5
		c-0.1,0.2-0.3,0.3-0.4,0.5c-0.1,0.2-0.3,0.4-0.5,0.5l-0.4,0.5c-0.2,0.2-0.3,0.4-0.5,0.5l-0.4,0.5l-0.5,0.5l-0.4,0.5l-0.5,0.5
		l-0.5,0.5l-0.5,0.5l-0.5,0.5l-0.5,0.5l-0.5,0.5l-0.5,0.5l-0.5,0.5l-0.6,0.6l-0.5,0.4l-0.7,0.6l-0.4,0.4l-0.8,0.6l-0.4,0.3
		c-0.4,0.3-0.8,0.6-1.2,1c-0.6,0.5-1.2,1-1.8,1.4l-0.4,0.3c-0.6,0.4-1.2,0.9-1.8,1.3l-0.3,0.2c-0.6,0.4-1.1,0.8-1.7,1.2l-0.1,0.1
		c-0.6,0.4-1.2,0.8-1.8,1.2l-0.4,0.2c-0.6,0.4-1.1,0.8-1.7,1.1l-0.3,0.2c-0.5,0.3-1,0.7-1.6,1l-0.2,0.1c-0.5,0.3-1.1,0.7-1.6,1
		l-0.3,0.2c-0.5,0.3-1.1,0.6-1.6,1l-0.9,0.5l-0.2,0.1l-0.9,0.5l-0.1,0.1l-0.8,0.5l-0.1,0l-0.8,0.5l-0.2,0.1l-0.8,0.4l-0.1,0.1
		l-0.8,0.4h0l-0.7,0.4l-0.1,0.1l-0.7,0.4c0,0-0.1,0-0.1,0.1l-0.6,0.3l-0.1,0l-0.6,0.3l-0.1,0.1l-0.5,0.3l-0.1,0.1l-0.5,0.2l-0.1,0
		l-0.4,0.2l-0.1,0l-0.4,0.2l-0.1,0l-0.3,0.2l-0.1,0l-0.3,0.1h0l-0.2,0.1l0,0l-0.2,0.1l-0.1,0v6.6l0.1,0l0.2-0.1h0l0.2-0.1h0l0.3-0.1
		l0,0l0.3-0.2l0.1,0l0.4-0.2l0.1,0l0.4-0.2l0.1,0l0.5-0.3l0.1,0l0.5-0.3l0.1,0l0.6-0.3h0l0.6-0.4l0.1-0.1l0.7-0.4l0.1-0.1l0.7-0.4h0
		l0.8-0.4l0.1-0.1l0.8-0.4l0.2-0.1l0.8-0.5l0.1,0l0.8-0.5l0.1-0.1l0.9-0.5l0.2-0.1l0.8-0.5l0,0l1.6-1l0.3-0.2l1.6-1l0.2-0.1
		c0.5-0.3,1-0.7,1.6-1l0.3-0.2l1.7-1.1c0.1-0.1,0.2-0.2,0.4-0.2c0.6-0.4,1.2-0.8,1.8-1.2l0.1-0.1c0.6-0.4,1.1-0.8,1.7-1.2l0.3-0.2
		c0.6-0.4,1.2-0.9,1.8-1.3l0.4-0.3c0.6-0.5,1.2-0.9,1.8-1.4c0.4-0.3,0.8-0.6,1.2-1l0.4-0.3c0.3-0.2,0.5-0.4,0.8-0.6l0.4-0.4l0.7-0.6
		l0.5-0.4l0.6-0.6l0.2-0.2l0.3-0.3l0.5-0.5l0.5-0.5l0.5-0.5l0.5-0.5l0.5-0.5l0.5-0.5l0.5-0.5l0.4-0.5l0.5-0.5l0.4-0.5l0.5-0.5
		l0.4-0.5l0.5-0.5c0.1-0.2,0.3-0.3,0.4-0.5c0.1-0.2,0.3-0.4,0.4-0.5c0.1-0.1,0.2-0.2,0.3-0.3l0.1-0.1c0.4-0.5,0.8-1,1.1-1.5l0.2-0.3
		c0.4-0.5,0.7-1,1.1-1.6l32.7-48.2l0-6.6L102.5,199.4z"/>
	<path class="st9" d="M94.1,154.1c1.6,2.7,3.2,5.6,4.7,8.7l-1.3,0.9c-1.5-3.1-3.1-6.1-4.7-8.7c-7.3-12-16-18.4-30.9-12.5
		c-9.8,3.9-16.6,10.5-20.2,19.5c-3.7,9.3-3.4,20-1.8,29.4c-0.5,0.5-1,0.9-1.4,1.4c-1.7-9.3-2.3-21.1,1.7-31.3
		C43.9,152,51,145.1,61.3,141C77.1,134.7,86.5,141.7,94.1,154.1z"/>
	<path class="st9" d="M300.2,174.2c-0.9,14.4-8.8,28-22.8,39.2c-4.1,3.3-8.5,6.2-13.1,8.8c-4.2,2.4-8.6,4.5-13,6.4
		c-18.4,7.7-40.2,11.9-61.9,11.9c-8.2,0-16.4-0.6-24.6-1.9c-16.2-2.5-29.3-10.3-40.1-23.7c-6.3-7.7-11.2-16.7-15.4-25.5
		c-2.1-4.4-4.1-8.9-6-13.1c-0.1-0.1-0.1-0.3-0.2-0.4c0-0.1-0.1-0.1-0.1-0.2c-0.4-0.9-0.8-1.8-1.2-2.6c-0.7-1.5-1.4-3-2-4.5l1.3-1
		c0.9,2,1.9,4.1,2.8,6.2l0.8,1.8c1.8,3.9,3.6,8,5.6,12.2c4.3,9,9.3,18.2,15.6,26c10.6,13.1,23.4,20.6,39.1,23.1
		c28.8,4.5,59.9,0.6,84.9-9.7c4.9-2,9.8-4.4,14.4-7c4.2-2.4,8.2-5.2,12.1-8.2c13.6-10.9,21.3-24.1,22.2-38
		c1.4-22.6-14.4-38.6-34.2-52.7v-2C285,133.9,301.7,150.4,300.2,174.2z"/>
	<path class="st9" d="M282.6,20.5l-1.6,0.9c-8.9-6-18.2-10.5-26.8-13c-10.2-2.9-19.5-3-27.8-0.4c-9.4,3-17.4,9.7-23.7,19.9
		c-3.1,5-5.2,9.7-6.6,14.2l-1.4-0.8c1.3-4.6,3.5-9.3,6.6-14.2c15.4-24.8,37.5-24.7,53.3-20.2C263.7,9.5,273.3,14.2,282.6,20.5z"/>
	<polyline class="st9" points="97.5,163.7 99.8,168.6 101.1,167.6 98.8,162.8 97.5,163.7 	"/>
</g>
</svg>
