<svg width="400" height="320" viewBox="0 0 400 320" fill="none" xmlns="http://www.w3.org/2000/svg">
<path d="M300.025 173.28V297.876L100.235 182.528V15.4824L139.934 38.3993" stroke="black" stroke-width="8" stroke-miterlimit="10"/>
<path d="M307.116 290.408L110.625 176.963V5L307.116 118.445V290.408Z" fill="black"/>
<path opacity="0.84" d="M313.712 314.84L104.03 193.783V10.2754L313.712 131.336V314.84Z" fill="#E5202B"/>
<path opacity="0.84" d="M110.625 14.082V176.963L307.116 290.407V127.527L110.625 14.082Z" fill="#E5202B"/>
<path d="M122.715 32.233C122.715 32.1274 122.715 32.0184 122.715 31.9058C122.715 29.0355 120.805 25.5953 118.462 24.2411C116.12 22.8868 114.206 24.1215 114.206 26.9953C114.206 27.1079 114.206 27.2251 114.206 27.3471L113.443 26.9074V36.44L123.457 42.2228V32.6902L122.715 32.233ZM115.441 27.6953C115.441 25.5848 116.802 24.6737 118.473 25.6375C120.144 26.6013 121.502 29.0953 121.502 31.1918C121.502 31.3043 121.502 31.4134 121.502 31.5189L115.469 28.033C115.444 27.9204 115.441 27.8043 115.441 27.6953ZM119.31 36.0988L117.604 35.1138L117.85 33.5063C117.495 33.0751 117.288 32.5411 117.259 31.9832C117.259 31.2269 117.798 30.9279 118.459 31.3043C118.806 31.5296 119.096 31.8336 119.304 32.1918C119.511 32.55 119.632 32.9522 119.655 33.3656C119.655 33.8686 119.419 34.1711 119.064 34.2063L119.31 36.0988Z" fill="white"/>
<path d="M64.0283 61.7598V191.621L162.946 251.599V121.738L64.0283 61.7598Z" fill="black"/>
<path d="M79.393 71.0743C78.2205 71.1915 77.0245 71.3557 75.8051 71.5667C71.7653 72.3022 67.8167 73.4721 64.0283 75.0561V61.7598L76.4875 69.3155L79.393 71.0743Z" fill="black"/>
<path d="M228.689 95.145L130.088 38.2168V41.3334L228.689 98.258V95.145Z" fill="black"/>
<path d="M93.6252 137.904C91.3071 137.904 88.7674 137.145 86.1574 135.639C77.4831 130.63 70.4233 118.463 70.4233 108.512C70.4233 103.404 72.2278 99.549 75.5027 97.6565C78.7775 95.7641 83.1041 96.1264 87.5996 98.7118L88.3031 99.1269V116.338L103.32 125.009V125.839C103.32 130.95 101.515 134.805 98.2402 136.694C96.836 137.499 95.2435 137.917 93.6252 137.904V137.904ZM80.1424 99.3414C79.0236 99.3224 77.92 99.6016 76.9449 100.15C74.5952 101.505 73.3042 104.474 73.3042 108.512C73.3042 117.545 79.7167 128.593 87.5996 133.135C91.1664 135.192 94.4377 135.572 96.8156 134.19C99 132.931 100.27 130.268 100.435 126.648L85.4539 118.013V100.826C83.5438 99.8374 81.7464 99.3414 80.1424 99.3414Z" fill="white"/>
<path d="M108.132 122.986C108.132 129.807 104.674 133.704 99.6545 133.588C101.061 131.78 101.892 129.152 101.892 125.849L86.8787 117.182V99.9707C84.5395 98.62 82.327 97.9551 80.3501 97.9094C82.9883 94.5361 87.737 94.0014 93.1188 97.118V114.333L108.132 122.986Z" fill="white"/>
<path d="M99.6509 135.684L104.509 132.121V127.189L99.6509 135.684Z" fill="white"/>
<path d="M78.4893 96.589L84.5957 95.2383L84.3671 98.2564L78.8938 97.4543L78.4893 96.589Z" fill="white"/>
<path d="M156.78 199.697L70.1948 149.706V137.904L156.78 187.892V199.697Z" fill="white"/>
<path d="M126.082 191.022L70.1948 158.755V156.68L126.082 188.943V191.022Z" fill="#575656"/>
<path d="M126.082 198.607L70.1948 166.341V164.262L126.082 196.528V198.607Z" fill="#575656"/>
<path d="M126.082 206.191L70.1948 173.925V171.846L126.082 204.112V206.191Z" fill="#575656"/>
<path d="M126.082 213.773L70.1948 181.507V179.428L126.082 211.694V213.773Z" fill="#575656"/>
<path d="M220.915 159.92L220.81 196.601L188.888 178.169L188.993 141.488L220.915 159.92Z" fill="white"/>
<path d="M220.915 159.92L252.629 141.488L252.527 178.169L220.81 196.601L220.915 159.92Z" fill="black"/>
<path d="M188.994 141.489L220.708 123.057L252.63 141.489L220.915 159.921L188.994 141.489Z" fill="black"/>
<path d="M257.997 221.051L257.927 245.379L236.754 233.155L236.825 208.824L257.997 221.051Z" fill="white"/>
<path d="M257.997 221.051L279.032 208.824L278.965 233.155L257.927 245.379L257.997 221.051Z" fill="black"/>
<path d="M236.825 208.825L257.86 196.602L279.032 208.825L257.997 221.052L236.825 208.825Z" fill="black"/>
<path d="M257.962 189.077L257.895 213.408L236.72 201.181L236.79 176.854L257.962 189.077Z" fill="white"/>
<path d="M257.962 189.077L279 176.854L278.93 201.181L257.895 213.408L257.962 189.077Z" fill="black"/>
<path d="M236.79 176.854L257.825 164.627L279.001 176.854L257.962 189.078L236.79 176.854Z" fill="black"/>
<path d="M214.83 165.499L201.435 173.136L195.002 161.992L193.616 162.784L201.428 176.316L216.209 167.891L214.83 165.499Z" fill="black"/>
<path d="M55.4421 94.8158C57.9514 92.3768 60.8543 90.3789 64.0285 88.9062V91.2841C61.409 92.5874 59.0083 94.2903 56.9125 96.3318C51.7382 101.443 49.1105 108.457 49.1105 117.18C49.1105 133.266 55.0376 147.059 60.015 155.796C61.3798 158.192 62.7481 160.369 64.032 162.237V165.92C61.9305 163.02 59.9883 160.008 58.214 156.897C53.0924 147.924 47 133.752 47 117.18C47 107.859 49.8422 100.342 55.4421 94.8158Z" fill="white"/>
<path d="M332.035 229.064C332.035 247.264 325.052 265.58 313.726 278.862C309.853 283.459 305.336 287.471 300.313 290.773C295.379 294.015 289.929 296.394 284.196 297.808C281.672 298.425 279.103 298.841 276.514 299.053C275.138 299.166 273.752 299.226 272.366 299.226C264.533 299.226 256.516 297.421 248.486 293.847C225.344 283.548 207.745 268.771 196.183 249.927C195.301 248.487 194.451 247.019 193.633 245.523C183.858 227.657 178.718 205.792 178.349 180.448C177.938 152.396 174.832 132.212 168.563 116.925C162.196 101.395 152.382 90.4163 137.679 82.3787C125.195 75.5511 113.134 75.6144 104.044 77.4752C102.285 77.827 100.646 78.2561 99.1196 78.7134C97.505 79.1988 95.9749 79.737 94.5467 80.2928L92.292 78.9279C94.3227 78.0767 96.3962 77.3311 98.504 76.6943C100.196 76.1843 102.046 75.7094 104.027 75.3189C113.447 73.4652 125.835 73.5074 138.675 80.5249C167.916 96.5122 179.626 124.519 180.442 180.424C180.829 207.066 186.362 229.377 197.186 247.609C208.611 266.85 225.935 281.536 249.326 291.93C261.726 297.449 272.542 298.019 281.491 296.267C287.79 295.004 293.788 292.543 299.16 289.018C304.705 285.356 309.618 280.818 313.708 275.581C323.772 262.84 329.924 245.906 329.924 229.064C329.924 211.107 325.285 196.485 316.505 186.78C315.627 185.808 314.699 184.881 313.726 184.004V181.215C315.271 182.492 316.722 183.879 318.067 185.366C327.191 195.465 332.035 210.573 332.035 229.064Z" fill="white"/>
</svg>
